<svg width="106" height="106" viewBox="0 0 106 106" fill="none" xmlns="http://www.w3.org/2000/svg">
<path d="M47.6102 43.1186C47.6102 56.0177 37.1533 66.4746 24.2542 66.4746C11.3551 66.4746 0.898315 56.0177 0.898315 43.1186C0.898315 30.2195 11.3551 19.7627 24.2542 19.7627C37.1533 19.7627 47.6102 30.2195 47.6102 43.1186Z" fill="#56CAD4"/>
<path d="M105.102 55.6949C105.102 75.5401 89.0147 91.6271 69.1695 91.6271C49.3243 91.6271 33.2373 75.5401 33.2373 55.6949C33.2373 35.8497 49.3243 19.7627 69.1695 19.7627C89.0147 19.7627 105.102 35.8497 105.102 55.6949Z" fill="#2B96A9"/>
<path d="M96.1186 7.18644C93.1421 7.18644 90.7288 4.77312 90.7288 1.79661C90.7288 0.804439 89.9244 0 88.9322 0C87.94 0 87.1356 0.804439 87.1356 1.79661C87.1356 4.77312 84.7223 7.18644 81.7458 7.18644C80.7536 7.18644 79.9492 7.99088 79.9492 8.98305C79.9492 9.97522 80.7536 10.7797 81.7458 10.7797C84.7223 10.7797 87.1356 13.193 87.1356 16.1695C87.1356 17.1617 87.94 17.9661 88.9322 17.9661C89.9244 17.9661 90.7288 17.1617 90.7288 16.1695C90.7288 13.193 93.1421 10.7797 96.1186 10.7797C97.1108 10.7797 97.9153 9.97522 97.9153 8.98305C97.9153 7.99088 97.1108 7.18644 96.1186 7.18644ZM88.9322 10.8349C88.4085 10.1305 87.7848 9.50677 87.0803 8.98305C87.7848 8.45933 88.4085 7.83561 88.9322 7.13117C89.4559 7.83561 90.0797 8.45933 90.7841 8.98305C90.0797 9.50677 89.4559 10.1305 88.9322 10.8349Z" fill="#2B96A9"/>
<path d="M40.1695 18.1864C37.193 18.1864 34.7797 15.7731 34.7797 12.7966C34.7797 11.8044 33.9752 11 32.9831 11C31.9909 11 31.1864 11.8044 31.1864 12.7966C31.1864 15.7731 28.7731 18.1864 25.7966 18.1864C24.8044 18.1864 24 18.9909 24 19.9831C24 20.9752 24.8044 21.7797 25.7966 21.7797C28.7731 21.7797 31.1864 24.193 31.1864 27.1695C31.1864 28.1617 31.9909 28.9661 32.9831 28.9661C33.9752 28.9661 34.7797 28.1617 34.7797 27.1695C34.7797 24.193 37.193 21.7797 40.1695 21.7797C41.1617 21.7797 41.9661 20.9752 41.9661 19.9831C41.9661 18.9909 41.1617 18.1864 40.1695 18.1864ZM32.9831 21.8349C32.4593 21.1305 31.8356 20.5068 31.1312 19.9831C31.8356 19.4593 32.4593 18.8356 32.9831 18.1312C33.5068 18.8356 34.1305 19.4593 34.8349 19.9831C34.1305 20.5068 33.5068 21.1305 32.9831 21.8349Z" fill="#E6F1FD"/>
<path d="M20.661 75.4576C20.661 74.4654 21.4654 73.661 22.4576 73.661V73.661C23.4499 73.661 24.2542 74.4654 24.2542 75.4576V75.4576C24.2542 76.4499 23.4499 77.2542 22.4576 77.2542V77.2542C21.4654 77.2542 20.661 76.4499 20.661 75.4576V75.4576Z" fill="#F9CD8B"/>
<path d="M103.305 93.4237C103.305 95.4081 101.696 97.0169 99.7119 97.0169C97.7275 97.0169 96.1187 95.4081 96.1187 93.4237C96.1187 91.4394 97.7275 89.8305 99.7119 89.8305C101.696 89.8305 103.305 91.4394 103.305 93.4237Z" fill="#B7E8EB"/>
<path d="M51.2034 12.5763C51.2034 15.5528 48.7901 17.9661 45.8135 17.9661C42.837 17.9661 40.4237 15.5528 40.4237 12.5763C40.4237 9.59978 42.837 7.18646 45.8135 7.18646C48.7901 7.18646 51.2034 9.59978 51.2034 12.5763Z" fill="#B7E8EB"/>
<path d="M63.7797 10.7796C63.7797 9.7874 64.584 8.98303 65.5763 8.98303V8.98303C66.5685 8.98303 67.3729 9.7874 67.3729 10.7796V10.7796C67.3729 11.7719 66.5685 12.5763 65.5763 12.5763V12.5763C64.584 12.5763 63.7797 11.7719 63.7797 10.7796V10.7796Z" fill="#F9CD8B"/>
<path d="M81.7457 100.61C81.7457 99.6179 82.5501 98.8135 83.5423 98.8135V98.8135C84.5346 98.8135 85.339 99.6179 85.339 100.61V100.61C85.339 101.602 84.5346 102.407 83.5423 102.407V102.407C82.5501 102.407 81.7457 101.602 81.7457 100.61V100.61Z" fill="#F9CD8B"/>
<path d="M8.00234 46.7193C7.05522 46.8044 6.22613 46.1091 6.22815 45.1582C6.23487 41.9909 6.80958 35.1379 11.2306 30.2976C14.2237 27.1805 18.2861 25.3505 22.561 25.1476C23.5096 25.1025 24.2542 25.8967 24.2542 26.8464V26.8464C24.2542 27.8761 23.3828 28.6813 22.3564 28.7642C19.1712 29.0217 16.1593 30.4136 13.8895 32.7215C10.5084 36.4218 9.90345 41.8359 9.84021 44.6673C9.81758 45.6802 9.01151 46.6286 8.00234 46.7193V46.7193Z" fill="#E6F1FD"/>
<ellipse cx="85.5" cy="52.5" rx="2.5" ry="3.5" fill="#E6F1FD"/>
<ellipse cx="71" cy="65.5" rx="9" ry="6.5" fill="#E6F1FD"/>
<ellipse cx="52.5" cy="52.5" rx="2.5" ry="3.5" fill="#E6F1FD"/>
</svg>
