<svg width="183" height="147" viewBox="0 0 183 147" fill="none" xmlns="http://www.w3.org/2000/svg">
<path d="M0 73.5C0 32.9071 32.9071 0 73.5 0H109.5C150.093 0 183 32.9071 183 73.5C183 114.093 150.093 147 109.5 147H73.5C32.9071 147 0 114.093 0 73.5Z" fill="#85C0CA"/>
<path d="M88.9254 36.1124C87.5503 36.1124 86.4355 34.9976 86.4355 33.6225V18.6362C86.4355 17.261 87.5503 16.1462 88.9254 16.1462C90.3006 16.1462 91.4154 17.261 91.4154 18.6362V33.6225C91.4154 34.9976 90.3006 36.1124 88.9254 36.1124Z" fill="#F5B666"/>
<path d="M88.9032 50.1273C88.706 50.1339 88.5089 50.1411 88.3117 50.1481V73.4287H112.801C112.469 66.5871 112.08 59.4031 110.206 52.6964C103.302 50.8074 95.9048 50.4661 88.9032 50.1273Z" fill="#C91844"/>
<path d="M88.9032 50.1273C95.9048 50.4659 103.302 50.8071 110.206 52.6964C108.868 47.905 106.771 43.3572 103.395 39.3534C103.176 39.1337 101.457 37.1555 99.8387 35.3742C96.372 34.382 92.7108 33.8496 88.9254 33.8496C88.7203 33.8496 88.5161 33.8545 88.3117 33.8574V50.1481C88.5089 50.1411 88.706 50.1338 88.9032 50.1273Z" fill="#FCDCA3"/>
<path d="M88.3117 50.1481C81.2796 50.3954 74.2559 50.8914 67.5442 52.8936C65.743 59.5513 65.3688 66.661 65.0412 73.4286H88.3117V50.1481Z" fill="#C6F7F4"/>
<path d="M88.3117 97.9431C88.4495 97.9482 88.5873 97.9531 88.7252 97.9579C95.766 97.6171 103.207 97.2747 110.144 95.3575C112.142 88.5312 112.602 81.3872 112.841 74.2429C112.828 73.9724 112.815 73.7004 112.801 73.4286H88.3117V97.9431Z" fill="#C6F7F4"/>
<path d="M67.5442 52.8936C74.2559 50.8914 81.2796 50.3954 88.3117 50.1482V33.8574C84.6625 33.9129 81.1333 34.4617 77.7877 35.4411C76.2537 37.1354 74.6693 38.9615 74.4557 39.1754C70.9917 43.2834 68.8776 47.9646 67.5442 52.8936Z" fill="#C91844"/>
<path d="M65.0411 73.4286C65.031 73.6408 65.0205 73.8532 65.0104 74.0646C65.2499 81.2506 65.7139 88.4363 67.7408 95.2987C74.3961 97.2258 81.3508 97.7024 88.312 97.9431V73.4286H65.0411Z" fill="#A6DBDF"/>
<path d="M110.144 95.3575C108.909 99.582 107.086 103.685 104.359 107.59C103.782 108.384 102.676 109.671 101.389 111.001C113.019 107.145 122.255 98.0434 126.294 86.4988C124.98 87.4787 123.789 88.3387 123.614 88.5123C119.575 91.9182 114.982 94.0204 110.144 95.3575Z" fill="#91F0F0"/>
<path d="M55.5559 58.6087C59.3861 55.9347 63.4059 54.128 67.5442 52.8936C68.8777 47.9646 70.992 43.2833 74.4555 39.1754C74.6693 38.9615 76.2535 37.1354 77.7875 35.4411C64.5088 39.3282 54.1231 49.9856 50.6225 63.4246C52.3777 61.4351 54.3912 59.4559 55.5559 58.6087Z" fill="#C6F7F4"/>
<path d="M67.5442 52.8936C63.4059 54.128 59.3861 55.9347 55.5559 58.6087C54.3912 59.4559 52.3779 61.4351 50.6228 63.4244C49.7904 66.6198 49.3462 69.9722 49.3462 73.4287H65.0412C65.3688 66.661 65.743 59.5513 67.5442 52.8936Z" fill="#A6DBDF"/>
<path d="M67.7406 95.2987C65.7137 88.4363 65.2497 81.2506 65.0102 74.0646C65.0203 73.8532 65.0307 73.6408 65.0409 73.4286H49.3462C49.3462 78.0348 50.1345 82.4562 51.5811 86.5673C53.0117 87.7594 54.476 88.8204 55.3776 89.476C59.3231 92.2306 63.4703 94.0623 67.7406 95.2987Z" fill="#C6F7F4"/>
<path d="M110.206 52.6964C115.087 54.0318 119.721 56.1396 123.793 59.5726C123.97 59.7497 125.398 61.0148 126.953 62.4241C123.185 49.3831 112.893 39.1109 99.8384 35.3742C101.456 37.1555 103.176 39.1337 103.395 39.3533C106.771 43.3572 108.868 47.905 110.206 52.6964Z" fill="#C6F7F4"/>
<path d="M110.206 52.6964C112.08 59.4033 112.469 66.5873 112.801 73.4286H128.505C128.505 69.6096 127.962 65.9179 126.953 62.4239C125.398 61.0149 123.97 59.7494 123.793 59.5724C119.721 56.1396 115.087 54.0319 110.206 52.6964Z" fill="#FCDCA3"/>
<path d="M112.801 73.4286C112.814 73.7004 112.827 73.9721 112.84 74.2429C112.602 81.3872 112.141 88.5312 110.144 95.3575C114.982 94.0204 119.575 91.9182 123.614 88.5123C123.788 88.3384 124.979 87.4787 126.294 86.4988C127.725 82.407 128.505 78.0094 128.505 73.4286H112.801Z" fill="#C91844"/>
<path d="M110.144 95.3575C103.207 97.2747 95.7658 97.6169 88.7252 97.9579C88.5873 97.953 88.4495 97.9482 88.3117 97.9431V113.002C88.5161 113.005 88.7205 113.008 88.9254 113.008C93.1606 113.008 97.239 112.34 101.065 111.109C101.173 111.074 101.281 111.037 101.389 111.001C102.676 109.671 103.782 108.384 104.359 107.59C107.086 103.685 108.909 99.582 110.144 95.3575Z" fill="#A6DBDF"/>
<path d="M67.7406 95.2986C68.9758 99.481 70.791 103.543 73.4916 107.412C74.1063 108.257 75.2184 109.614 76.477 111.007C76.6458 111.063 76.8144 111.119 76.9842 111.173C80.5666 112.306 84.3692 112.942 88.3118 113.002V97.9431C81.3506 97.7024 74.3959 97.2257 67.7406 95.2986Z" fill="#C6F7F4"/>
<path d="M67.7406 95.2987C63.4703 94.0623 59.3231 92.2304 55.3776 89.4762C54.476 88.8204 53.0117 87.7594 51.5811 86.5676C55.6336 98.0853 64.8631 107.162 76.477 111.007C75.2183 109.614 74.1062 108.257 73.4916 107.412C70.7909 103.543 68.9757 99.481 67.7406 95.2987Z" fill="#FCDCA3"/>
<path d="M71.5814 85.896C70.3318 85.896 69.2545 84.9575 69.1104 83.6863C68.9765 82.5054 68.8706 81.3087 68.7956 80.1295C68.7084 78.757 69.75 77.574 71.1225 77.4865C72.4959 77.3981 73.6783 78.441 73.7655 79.8135C73.8352 80.9111 73.9338 82.0254 74.0585 83.1251C74.2135 84.4918 73.2312 85.725 71.8648 85.88C71.7699 85.8907 71.6752 85.896 71.5814 85.896Z" fill="white"/>
<path d="M71.6686 67.1429C71.5831 67.1429 71.4971 67.1386 71.4104 67.1296C70.0423 66.9887 69.0477 65.7654 69.1889 64.3975C69.4206 62.1476 69.7316 59.7848 70.1123 57.375C70.3271 56.0171 71.6027 55.0905 72.9607 55.3046C74.3191 55.5191 75.246 56.7945 75.0314 58.1527C74.6642 60.4741 74.3654 62.747 74.1426 64.9083C74.0103 66.189 72.9287 67.1429 71.6686 67.1429Z" fill="white"/>
<path d="M56.4673 90.2074C54.2936 87.3394 52.5484 84.1285 51.3309 80.6684C50.5174 78.3564 49.9418 75.9331 49.6267 73.4286H49.346C49.346 78.0348 50.1343 82.456 51.5809 86.5673C53.0115 87.7594 54.4757 88.8204 55.3774 89.4762C55.739 89.7286 56.1025 89.9705 56.4673 90.2074Z" fill="#91F0F0"/>
<path d="M94.1887 35.2037C97.4856 36.1473 100.583 37.5617 103.407 39.3674C103.403 39.3626 103.399 39.358 103.395 39.3534C103.176 39.1337 101.457 37.1555 99.8387 35.374C96.372 34.3818 92.7109 33.8494 88.9255 33.8494C88.7203 33.8494 88.5162 33.8543 88.3118 33.8572V34.0609C90.3263 34.2779 92.2909 34.6605 94.1887 35.2037Z" fill="#F9CD8B"/>
<path d="M101.154 11V15.5727C101.154 19.1414 98.2608 22.0343 94.6922 22.0343H84.3578C80.7892 22.0343 77.8962 19.1414 77.8962 15.5727V11" fill="#FCDCA3"/>
<path d="M88.7327 135C87.3575 135 86.2427 133.885 86.2427 132.51V123.292C86.2427 121.917 87.3575 120.802 88.7327 120.802C90.1078 120.802 91.2226 121.917 91.2226 123.292V132.51C91.2226 133.885 90.1078 135 88.7327 135Z" fill="#C91844"/>
<path d="M60.5169 128.057C60.1158 128.057 59.7094 127.96 59.3321 127.756C58.1233 127.1 57.6745 125.589 58.3299 124.38L62.7239 116.276C63.3797 115.067 64.8912 114.619 66.0998 115.274C67.3088 115.93 67.7573 117.441 67.1019 118.65L62.7079 126.754C62.257 127.585 61.4011 128.057 60.5169 128.057Z" fill="#C91844"/>
<path d="M39.6313 109.397C38.8328 109.397 38.0489 109.014 37.5674 108.303C36.7963 107.165 37.0942 105.617 38.2329 104.845L45.8652 99.676C47.0038 98.9053 48.5521 99.2032 49.3232 100.342C50.0943 101.48 49.7964 103.028 48.6577 103.799L41.0254 108.969C40.5977 109.258 40.1118 109.397 39.6313 109.397Z" fill="#C91844"/>
<path d="M118.048 128.057C117.164 128.057 116.308 127.585 115.857 126.754L111.463 118.65C110.807 117.441 111.256 115.93 112.465 115.274C113.674 114.619 115.185 115.067 115.841 116.276L120.235 124.38C120.89 125.589 120.442 127.1 119.233 127.756C118.855 127.96 118.449 128.057 118.048 128.057Z" fill="#C91844"/>
<path d="M138.933 109.397C138.453 109.397 137.967 109.258 137.539 108.969L129.907 103.799C128.768 103.028 128.47 101.48 129.241 100.342C130.012 99.203 131.561 98.9056 132.699 99.676L140.332 104.845C141.47 105.617 141.768 107.165 140.997 108.303C140.516 109.014 139.732 109.397 138.933 109.397Z" fill="#C91844"/>
<path d="M103.407 39.3675C109.3 43.1364 113.994 48.6147 116.79 55.1038C119.254 56.269 121.605 57.7282 123.793 59.5727C123.97 59.7499 125.399 61.0149 126.953 62.4239C123.186 49.3829 112.893 39.1107 99.8389 35.3743C101.457 37.1556 103.176 39.1337 103.396 39.3536C103.399 39.358 103.403 39.3626 103.407 39.3675Z" fill="#91F0F0"/>
<path d="M116.79 55.1038C117.365 56.4375 117.861 57.8134 118.269 59.2265C119.165 62.3292 119.647 65.6084 119.647 68.9998C119.647 70.4999 119.552 71.978 119.369 73.4287H128.505C128.505 69.6096 127.962 65.9177 126.953 62.4239C125.398 61.0149 123.97 59.7497 123.793 59.5726C121.605 57.7281 119.254 56.2687 116.79 55.1038Z" fill="#F9CD8B"/>
<path d="M119.369 73.4289C119.057 75.9116 118.486 78.3138 117.683 80.6076C116.189 84.879 113.891 88.7717 110.975 92.11C110.731 93.1994 110.459 94.2829 110.144 95.3575C114.982 94.0204 119.575 91.9182 123.615 88.5123C123.789 88.3384 124.98 87.4787 126.294 86.4988C127.725 82.407 128.505 78.0094 128.505 73.4289H119.369Z" fill="#AC1147"/>
<path d="M110.144 95.3575C109.046 95.6615 107.933 95.9216 106.812 96.1524C103.513 98.8671 99.7108 100.993 95.5655 102.368C95.4694 102.4 95.374 102.433 95.2776 102.464C93.0446 103.183 90.7143 103.683 88.3118 103.944V113.002C88.5159 113.005 88.7206 113.008 88.9255 113.008C93.1606 113.008 97.239 112.34 101.065 111.109C101.173 111.074 101.281 111.037 101.389 111.001C102.676 109.671 103.782 108.384 104.359 107.59C107.086 103.685 108.909 99.582 110.144 95.3575Z" fill="#619CAD"/>
<path d="M84.4966 104.15C84.3144 104.15 84.133 104.148 83.9514 104.145C80.4499 104.091 77.073 103.526 73.8914 102.52C73.7405 102.473 73.5909 102.423 73.4409 102.373C72.2041 101.964 70.9985 101.486 69.8268 100.947C70.8202 103.151 72.0244 105.31 73.4916 107.412C74.1062 108.257 75.2184 109.614 76.477 111.007C76.6458 111.063 76.8144 111.119 76.9841 111.173C80.5666 112.306 84.3692 112.942 88.3117 113.002V103.944C87.0584 104.079 85.786 104.15 84.4966 104.15Z" fill="#91F0F0"/>
<path d="M69.8268 100.947C64.5331 98.512 59.9487 94.8012 56.4672 90.2074C56.1025 89.9705 55.739 89.7286 55.3776 89.4762C54.476 88.8204 53.0117 87.7594 51.5811 86.5673C55.6336 98.085 64.8632 107.162 76.477 111.007C75.2184 109.614 74.1063 108.257 73.4916 107.412C72.0244 105.31 70.8205 103.151 69.8268 100.947Z" fill="#F9CD8B"/>
<path d="M50.1459 17.7405L52.1912 23.4918C52.2788 23.7381 52.452 23.933 52.6709 24.0316L57.7806 26.3338C58.5026 26.6591 58.5026 27.8092 57.7806 28.1345L52.6712 30.4367C52.4525 30.5353 52.2791 30.7305 52.1914 30.9766L50.1461 36.7278C49.8572 37.5403 48.8352 37.5403 48.5462 36.7278L46.501 30.9766C46.4135 30.7303 46.2401 30.5353 46.0212 30.4367L40.9115 28.1345C40.1896 27.8092 40.1896 26.6591 40.9115 26.3338L46.0212 24.0316C46.2399 23.933 46.4133 23.7378 46.501 23.4918L48.5462 17.7405C48.8352 16.928 49.857 16.928 50.1459 17.7405Z" fill="#C6F7F4"/>
<path d="M145.924 43.3696L147.441 47.6357C147.506 47.8183 147.635 47.9631 147.797 48.0363L151.587 49.7439C152.123 49.9852 152.123 50.8384 151.587 51.0796L147.797 52.7873C147.635 52.8604 147.506 53.0052 147.441 53.1878L145.924 57.454C145.71 58.0568 144.952 58.0568 144.737 57.454L143.22 53.1878C143.155 53.0052 143.026 52.8604 142.864 52.7873L139.074 51.0796C138.539 50.8384 138.539 49.9852 139.074 49.7439L142.864 48.0363C143.026 47.9631 143.155 47.8183 143.22 47.6357L144.737 43.3696C144.952 42.767 145.71 42.767 145.924 43.3696Z" fill="#C6F7F4"/>
<path d="M134.744 35.7972C137.023 34.8525 138.105 32.239 137.16 29.9599C136.216 27.6807 133.602 26.599 131.323 27.5437C129.044 28.4884 127.962 31.1018 128.907 33.381C129.851 35.6601 132.465 36.7419 134.744 35.7972Z" fill="#C91844"/>
<path d="M33.9377 50.8258C35.0018 50.8258 35.8643 49.9632 35.8643 48.8992C35.8643 47.8352 35.0018 46.9726 33.9377 46.9726C32.8737 46.9726 32.0111 47.8352 32.0111 48.8992C32.0111 49.9632 32.8737 50.8258 33.9377 50.8258Z" fill="#C91844"/>
</svg>
