<svg width="183" height="46" viewBox="0 0 183 46" fill="none" xmlns="http://www.w3.org/2000/svg">
<path d="M0 13C0 5.8203 5.8203 0 13 0H170C177.18 0 183 5.8203 183 13V33C183 40.1797 177.18 46 170 46H13C5.8203 46 0 40.1797 0 33V13Z" fill="#F5B666"/>
<path d="M51.8906 33V11.6719H57.9111C59.7666 11.6719 61.4072 12.082 62.833 12.9023C64.2588 13.7227 65.3574 14.8896 66.1289 16.4033C66.9102 17.917 67.3057 19.6553 67.3154 21.6182V22.9805C67.3154 24.9922 66.9248 26.7549 66.1436 28.2686C65.3721 29.7822 64.2637 30.9443 62.8184 31.7549C61.3828 32.5654 59.708 32.9805 57.7939 33H51.8906ZM54.7031 13.9863V30.7002H57.6621C59.8301 30.7002 61.5146 30.0264 62.7158 28.6787C63.9268 27.3311 64.5322 25.4121 64.5322 22.9219V21.6768C64.5322 19.2549 63.9609 17.375 62.8184 16.0371C61.6855 14.6895 60.0742 14.0059 57.9844 13.9863H54.7031ZM80.9385 33C80.7822 32.6875 80.6553 32.1309 80.5576 31.3301C79.2979 32.6387 77.7939 33.293 76.0459 33.293C74.4834 33.293 73.1992 32.8535 72.1934 31.9746C71.1973 31.0859 70.6992 29.9629 70.6992 28.6055C70.6992 26.9551 71.3242 25.6758 72.5742 24.7676C73.834 23.8496 75.6016 23.3906 77.877 23.3906H80.5137V22.1455C80.5137 21.1982 80.2305 20.4463 79.6641 19.8896C79.0977 19.3232 78.2627 19.04 77.1592 19.04C76.1924 19.04 75.3818 19.2842 74.7275 19.7725C74.0732 20.2607 73.7461 20.8516 73.7461 21.5449H71.0215C71.0215 20.7539 71.2998 19.9922 71.8564 19.2598C72.4229 18.5176 73.1846 17.9316 74.1416 17.502C75.1084 17.0723 76.168 16.8574 77.3203 16.8574C79.1465 16.8574 80.5771 17.3164 81.6123 18.2344C82.6475 19.1426 83.1846 20.3975 83.2236 21.999V29.2939C83.2236 30.749 83.4092 31.9062 83.7803 32.7656V33H80.9385ZM76.4414 30.9346C77.291 30.9346 78.0967 30.7148 78.8584 30.2754C79.6201 29.8359 80.1719 29.2646 80.5137 28.5615V25.3096H78.3896C75.0693 25.3096 73.4092 26.2812 73.4092 28.2246C73.4092 29.0742 73.6924 29.7383 74.2588 30.2168C74.8252 30.6953 75.5527 30.9346 76.4414 30.9346ZM90.0352 17.1504L90.123 19.1426C91.334 17.6191 92.916 16.8574 94.8691 16.8574C98.2188 16.8574 99.9082 18.7471 99.9375 22.5264V33H97.2275V22.5117C97.2178 21.3691 96.9541 20.5244 96.4365 19.9775C95.9287 19.4307 95.1328 19.1572 94.0488 19.1572C93.1699 19.1572 92.3984 19.3916 91.7344 19.8604C91.0703 20.3291 90.5527 20.9443 90.1816 21.7061V33H87.4717V17.1504H90.0352ZM110.382 31.0811C111.349 31.0811 112.193 30.7881 112.916 30.2021C113.639 29.6162 114.039 28.8838 114.117 28.0049H116.681C116.632 28.9131 116.319 29.7773 115.743 30.5977C115.167 31.418 114.396 32.0723 113.429 32.5605C112.472 33.0488 111.456 33.293 110.382 33.293C108.224 33.293 106.505 32.5752 105.226 31.1396C103.956 29.6943 103.321 27.7217 103.321 25.2217V24.7676C103.321 23.2246 103.604 21.8525 104.171 20.6514C104.737 19.4502 105.548 18.5176 106.603 17.8535C107.667 17.1895 108.922 16.8574 110.367 16.8574C112.145 16.8574 113.619 17.3896 114.791 18.4541C115.973 19.5186 116.603 20.9004 116.681 22.5996H114.117C114.039 21.5742 113.648 20.7344 112.945 20.0801C112.252 19.416 111.393 19.084 110.367 19.084C108.99 19.084 107.921 19.582 107.159 20.5781C106.407 21.5645 106.031 22.9951 106.031 24.8701V25.3828C106.031 27.209 106.407 28.6152 107.159 29.6016C107.911 30.5879 108.985 31.0811 110.382 31.0811ZM126.305 33.293C124.156 33.293 122.408 32.5898 121.061 31.1836C119.713 29.7676 119.039 27.8779 119.039 25.5146V25.0166C119.039 23.4443 119.337 22.043 119.933 20.8125C120.538 19.5723 121.378 18.6055 122.452 17.9121C123.536 17.209 124.708 16.8574 125.968 16.8574C128.028 16.8574 129.63 17.5361 130.772 18.8936C131.915 20.251 132.486 22.1943 132.486 24.7236V25.8516H121.749C121.788 27.4141 122.242 28.6787 123.111 29.6455C123.99 30.6025 125.104 31.0811 126.451 31.0811C127.408 31.0811 128.219 30.8857 128.883 30.4951C129.547 30.1045 130.128 29.5869 130.626 28.9424L132.281 30.2314C130.953 32.2725 128.961 33.293 126.305 33.293ZM125.968 19.084C124.874 19.084 123.956 19.4844 123.214 20.2852C122.472 21.0762 122.013 22.1895 121.837 23.625H129.776V23.4199C129.698 22.043 129.327 20.9785 128.663 20.2266C127.999 19.4648 127.101 19.084 125.968 19.084Z" fill="#004643"/>
</svg>
