<svg width="84" height="97" viewBox="0 0 84 97" fill="none" xmlns="http://www.w3.org/2000/svg">
<g clip-path="url(#clip0)">
<path d="M53.5785 69.783L44.5547 69.783L44.5547 -3.34652e-05L11.9905 -3.59494e-05L11.9905 69.783L2.96635 69.783C0.328517 69.783 -0.992122 72.5616 0.873098 74.1829L26.1778 96.2152C27.3354 97.223 29.2095 97.223 30.3671 96.2152L55.6715 74.1827C57.5367 72.5616 56.2164 69.783 53.5785 69.783V69.783Z" fill="#56CAD4"/>
<path d="M2.96772 69.7837L11.9919 69.7837L11.9919 -4.89688e-05L24.4087 -4.80188e-05L24.4087 67.4381C24.4087 68.7345 23.2038 69.7837 21.7176 69.7837L15.3849 69.7837C12.747 69.7837 11.4264 72.5623 13.2916 74.1836L34.4811 92.6335L30.3659 96.2162C29.2111 97.224 27.337 97.224 26.1794 96.2162L0.874754 74.1834C-0.990752 72.5623 0.329598 69.7837 2.96772 69.7837V69.7837Z" fill="#2B96A9"/>
<path d="M47.0431 85.2921C47.0431 85.2921 36.3671 72.1682 38.2149 65.8013C40.0627 59.4344 50.8859 55.5361 50.8859 55.5361L50.0939 85.2923H47.0431V85.2921Z" fill="#F9CD8B"/>
<path d="M84 60.7985C84 58.2868 81.9317 56.2506 79.3803 56.2506C76.8289 56.2506 74.7606 58.2868 74.7606 60.7985V58.1095C74.7606 55.5977 72.6923 53.5615 70.1409 53.5615C67.5896 53.5615 65.5213 55.5977 65.5213 58.1095V55.9583C65.5213 53.4466 63.4529 51.4104 60.9016 51.4104C58.3502 51.4104 56.2819 53.4466 56.2819 55.9583V33.948C56.2819 31.4362 54.2136 29.4 51.6622 29.4C51.5824 29.4 51.5032 29.4021 51.4246 29.4058C48.9509 29.5261 47.0427 31.6082 47.0427 34.0462V94.9977C47.0427 96.0543 47.9126 96.9106 48.9858 96.9106H78.2439C79.3171 96.9106 80.187 96.0543 80.187 94.9977V87.2841C80.187 86.6461 80.3599 86.0196 80.6879 85.4694L82.3672 82.6526C83.4362 80.8592 83.9998 78.8176 83.9998 76.7385V60.7985H84Z" fill="#FCDCA3"/>
<path d="M83.9997 60.9018V76.738C83.9997 78.8182 83.4363 80.86 82.3682 82.6524L80.6879 85.4696C80.3604 86.0203 80.1869 86.6459 80.1869 87.285V94.9979C80.1869 96.0545 79.317 96.9108 78.2438 96.9108H74.5359V87.285C74.5359 86.6459 74.7094 86.0203 75.0368 85.4696L76.7151 82.6524C77.7853 80.86 78.3487 78.8182 78.3487 76.738V60.7987C78.3487 59.3344 77.6469 58.0333 76.5554 57.2024C77.3781 56.5722 78.4213 56.214 79.5483 56.2536C82.0508 56.3412 83.9997 58.4368 83.9997 60.9018V60.9018Z" fill="#F9CD8B"/>
<path d="M47.0425 57.2703V73.5699C47.0425 74.3619 46.3897 75.0045 45.5853 75.0045C44.7808 75.0045 44.1281 74.3619 44.1281 73.5699V58.988C45.1228 58.3242 46.1255 57.7503 47.0425 57.2703Z" fill="#F5B666"/>
</g>
<defs>
<clipPath id="clip0">
<rect width="84" height="97" fill="white"/>
</clipPath>
</defs>
</svg>
