<svg width="183" height="146" viewBox="0 0 183 146" fill="none" xmlns="http://www.w3.org/2000/svg">
<path d="M0 73C0 32.6832 32.6832 0 73 0H110C150.317 0 183 32.6832 183 73C183 113.317 150.317 146 110 146H73C32.6832 146 0 113.317 0 73Z" fill="#85C0CA"/>
<path d="M82.4485 51.1165C82.4485 51.2387 82.4439 51.3608 82.4325 51.483C82.4028 51.8056 82.3708 52.149 82.332 52.5086C82.2497 53.3106 82.1446 54.2002 82.0075 55.1613C76.7813 56.9612 73.0474 54.2878 73.0474 54.2878C73.2302 53.1032 73.3871 51.9078 73.5181 50.7017C73.806 48.026 76.5528 46.249 79.2493 47.0165C80.1531 47.2541 80.9551 47.7835 81.5327 48.5238C82.1103 49.2641 82.432 50.1746 82.4485 51.1165Z" fill="#C1D5E4"/>
<path d="M82.0075 55.1613C81.8567 56.256 81.667 57.4406 81.4316 58.692H81.4293C81.1117 60.3814 80.7095 62.1882 80.2022 64.0573C75.8673 66.2145 71.2193 62.8912 71.2193 62.8912H71.217C71.9874 60.0605 72.5985 57.1881 73.0474 54.2878C73.0474 54.2878 76.7813 56.9612 82.0075 55.1613Z" fill="#DAE7EF"/>
<path d="M80.2022 64.0573C79.306 67.4293 78.0916 70.7069 76.5757 73.8453H76.5734C70.8445 74.7073 68.3537 71.3494 68.3537 71.3494H68.3514C69.4821 68.5936 70.4392 65.7686 71.217 62.8912H71.2193C71.2193 62.8912 75.8673 66.2145 80.2022 64.0573Z" fill="#C1D5E4"/>
<path d="M70.5223 82.7806C70.0721 83.26 69.6051 83.7248 69.1215 84.1749C67.6726 85.5136 65.941 86.5026 64.0576 87.0673C61.52 87.8332 58.8179 87.8484 56.272 87.1111C56.2195 87.0973 56.1692 87.0811 56.1166 87.0673C58.6577 86.2837 61.3428 83.7601 63.8359 80.0196C63.8359 80.0196 65.2527 83.7486 70.5223 82.7806Z" fill="#C1D5E4"/>
<path d="M76.5733 73.8453H76.5756C75.0105 77.1107 72.971 80.1223 70.5245 82.7806H70.5222C65.2527 83.7486 63.8359 80.0196 63.8359 80.0196C65.6168 77.2844 67.1291 74.3806 68.3513 71.3494H68.3536C68.3536 71.3494 70.8444 74.7073 76.5733 73.8453Z" fill="#DAE7EF"/>
<path d="M36.2312 104.357C35.9329 103.841 35.7199 103.28 35.6005 102.695C35.6005 102.695 34.9493 100.571 37.191 97.556C37.191 97.556 43.4272 104.352 58.6509 99.0333C75.5405 93.1333 87.3525 98.7728 87.3525 98.7728C85.9105 99.9667 84.3498 101.267 82.6405 102.695C68.7856 114.267 41.0872 112.884 36.2312 104.359V104.357Z" fill="#437991"/>
<path d="M109.644 82.5847C101.203 87.655 96.7696 90.9738 87.3524 98.7728C87.3524 98.7728 75.5405 93.1333 58.6509 99.0333C43.4272 104.352 37.191 97.556 37.191 97.556C39.4281 94.5391 44.5583 90.6327 56.1166 87.0673C56.1692 87.0812 56.2195 87.0973 56.272 87.1111C58.8179 87.8484 61.52 87.8333 64.0576 87.0673C64.0576 87.0673 71.2192 93.6288 92.8574 79.3397C103.01 72.6331 109.644 82.5847 109.644 82.5847Z" fill="#C91844"/>
<path d="M111.347 46.1315C111.328 46.3205 110.997 50.1555 110.958 55.1612C110.89 63.6886 111.671 75.6107 116.303 78.6829C113.789 80.1302 111.609 81.4047 109.644 82.5847C109.644 82.5847 103.01 72.6331 92.8574 79.3397C71.2192 93.6288 64.0576 87.0673 64.0576 87.0673C65.941 86.5026 67.6726 85.5136 69.1215 84.175C69.6059 83.7255 70.0728 83.2608 70.5223 82.7806H70.5245C72.971 80.1223 75.0105 77.1107 76.5756 73.8454C78.0916 70.7069 79.3059 67.4293 80.2022 64.0573C80.7095 62.1882 81.1117 60.3814 81.4293 58.692H81.4316C81.7172 58.692 104.288 58.6114 111.347 46.1315Z" fill="#437991"/>
<path d="M111.347 46.1315C104.288 58.6114 81.7172 58.692 81.4316 58.692C81.667 57.4406 81.8566 56.256 82.0074 55.1613C82.1445 54.2002 82.2497 53.3106 82.3319 52.5086C82.3319 52.5086 90.3094 53.1377 99.2192 40.4504C102.64 35.5806 108.013 36.6154 113.337 39.7429C113.128 41.9903 112.45 44.1676 111.347 46.1315Z" fill="#56CAD4"/>
<path d="M120.208 44.7948C119.836 53.5042 110.958 55.1613 110.958 55.1613C110.997 50.1555 111.328 46.3205 111.347 46.1315C112.45 44.1676 113.128 41.9903 113.337 39.7429C115.772 41.2173 118.071 42.908 120.208 44.7948Z" fill="#40B459"/>
<path d="M130.302 55.1612C130.302 55.1612 136.933 66.8667 119.32 76.9497C118.261 77.5559 117.256 78.1336 116.303 78.6829C111.671 75.6107 110.89 63.6886 110.958 55.1612C110.958 55.1612 119.836 53.5042 120.208 44.7948C123.836 47.9788 127.211 51.445 130.302 55.1612Z" fill="#C91844"/>
<path d="M130.302 55.1613C130.302 55.1613 136.933 66.8668 119.319 76.9498C118.261 77.5559 117.256 78.1336 116.303 78.6829C113.789 80.1302 111.609 81.4047 109.644 82.5847C101.203 87.6551 96.7696 90.9738 87.3524 98.7729C85.9105 99.9667 84.3497 101.267 82.6404 102.695C68.7855 114.267 41.0872 112.884 36.2312 104.359C36.3523 104.777 40.6438 118.897 69.078 114.394C82.5445 112.262 91.6485 105.507 101.854 96.8369C116.826 84.1174 119.347 90.0058 133.069 79.3397C149.422 66.6317 130.302 55.1613 130.302 55.1613Z" fill="#C1D5E4"/>
<path d="M100.273 72.6677C103.644 72.6677 106.376 69.9116 106.376 66.5118C106.376 63.1121 103.644 60.356 100.273 60.356C96.9018 60.356 94.1691 63.1121 94.1691 66.5118C94.1691 69.9116 96.9018 72.6677 100.273 72.6677Z" fill="#40B459"/>
<path d="M60.2299 90.0669C60.2825 90.0807 60.3328 90.1003 60.3853 90.113C62.9305 90.8526 65.6327 90.8398 68.1708 90.0761C69.3826 89.7107 70.5362 89.1723 71.5967 88.4773C66.1786 89.0074 64.0576 87.0662 64.0576 87.0662C61.52 87.8321 58.8179 87.8473 56.272 87.11C56.2195 87.0962 56.1692 87.08 56.1166 87.0662C44.5583 90.6315 39.4281 94.538 37.191 97.5548C37.191 97.5548 38.5817 99.0695 41.6511 100.109C44.054 97.16 49.2296 93.4605 60.2299 90.0669Z" fill="#AC1147"/>
<path d="M86.1248 58.1009C86.2186 57.4173 86.5144 56.778 86.9736 56.2664C87.4329 55.7548 88.0343 55.3947 88.6995 55.2329C91.6897 54.5247 97.2972 52.0407 103.333 43.4465C105.838 39.8798 109.391 39.4825 113.204 40.753C113.257 40.4221 113.303 40.0863 113.337 39.7429C108.013 36.6154 102.64 35.5806 99.2195 40.4504C90.3097 53.1377 82.3322 52.5086 82.3322 52.5086C82.2499 53.3106 82.1448 54.2002 82.0077 55.1613C81.8569 56.256 81.6672 57.4406 81.4318 58.692C81.5118 58.692 83.339 58.6856 86.0828 58.4026C86.0956 58.3104 86.1086 58.2182 86.121 58.1297L86.1248 58.1009Z" fill="#2B96A9"/>
<path d="M40.3125 107.353C40.0504 106.823 39.8443 106.266 39.6978 105.692C39.6978 105.692 39.0625 103.568 41.3042 100.553C41.4123 100.407 41.5293 100.259 41.6511 100.109C38.5817 99.0706 37.1909 97.556 37.1909 97.556C34.9492 100.57 35.5845 102.695 35.5845 102.695C35.7311 103.27 35.9371 103.826 36.1992 104.357V104.359C37.1132 105.913 38.7462 107.228 40.926 108.272C40.6964 107.984 40.4911 107.678 40.3125 107.356V107.353Z" fill="#2A5875"/>
<path d="M74.6355 85.832H74.6378C77.0608 83.1396 79.0977 80.118 80.6889 76.8553C82.2052 73.7027 83.4196 70.4112 84.3155 67.0258C84.8228 65.1567 85.225 63.4766 85.5426 61.6328H85.5449C85.7611 60.5745 85.9382 59.4028 86.0826 58.3749C84.5378 58.5435 82.9854 58.6309 81.4316 58.6367H81.4293C81.1117 60.4805 80.7095 62.1606 80.2022 64.0297C79.3063 67.4151 78.0919 70.7066 76.5756 73.8592C74.9844 77.1219 72.9476 80.1436 70.5245 82.8359H70.5223C70.0721 83.2969 69.6052 83.7524 69.1215 84.2026C67.6719 85.5371 65.9402 86.5215 64.0576 87.0812C64.0576 87.0812 66.1786 89.0157 71.5967 88.4854C72.1772 88.1044 72.7251 87.6752 73.2347 87.2022C73.7192 86.7539 74.1854 86.293 74.6355 85.832Z" fill="#2A5875"/>
<path d="M142.218 34.6334H126.873C126.509 34.6334 126.16 34.4877 125.903 34.2284C125.646 33.9691 125.502 33.6174 125.502 33.2506C125.502 32.8839 125.646 32.5321 125.903 32.2728C126.16 32.0135 126.509 31.8678 126.873 31.8678H142.218C142.582 31.8678 142.931 32.0135 143.188 32.2728C143.445 32.5321 143.589 32.8839 143.589 33.2506C143.589 33.6174 143.445 33.9691 143.188 34.2284C142.931 34.4877 142.582 34.6334 142.218 34.6334Z" fill="#2B4D66"/>
<path d="M121.787 34.6334H119.745C119.381 34.6334 119.032 34.4877 118.775 34.2284C118.518 33.9691 118.373 33.6174 118.373 33.2506C118.373 32.8839 118.518 32.5321 118.775 32.2728C119.032 32.0135 119.381 31.8678 119.745 31.8678H121.788C122.152 31.8678 122.501 32.0135 122.758 32.2728C123.015 32.5321 123.159 32.8839 123.159 33.2506C123.159 33.6174 123.015 33.9691 122.758 34.2284C122.501 34.4877 122.152 34.6334 121.788 34.6334H121.787Z" fill="#2B4D66"/>
<path d="M145.834 118.132H122.112C121.748 118.132 121.4 117.987 121.142 117.727C120.885 117.468 120.741 117.116 120.741 116.749C120.741 116.383 120.885 116.031 121.142 115.772C121.4 115.512 121.748 115.367 122.112 115.367H145.834C146.198 115.367 146.546 115.512 146.803 115.772C147.061 116.031 147.205 116.383 147.205 116.749C147.205 117.116 147.061 117.468 146.803 117.727C146.546 117.987 146.198 118.132 145.834 118.132Z" fill="#2B4D66"/>
<path d="M115.873 118.132H86.8517C86.4881 118.132 86.1394 117.987 85.8822 117.727C85.6251 117.468 85.4807 117.116 85.4807 116.749C85.4807 116.383 85.6251 116.031 85.8822 115.772C86.1394 115.512 86.4881 115.367 86.8517 115.367H115.873C116.237 115.367 116.586 115.512 116.843 115.772C117.1 116.031 117.244 116.383 117.244 116.749C117.244 117.116 117.1 117.468 116.843 117.727C116.586 117.987 116.237 118.132 115.873 118.132Z" fill="#2B4D66"/>
<path d="M142.218 106.982H137.21C136.846 106.982 136.498 106.836 136.24 106.577C135.983 106.318 135.839 105.966 135.839 105.599C135.839 105.232 135.983 104.881 136.24 104.621C136.498 104.362 136.846 104.216 137.21 104.216H142.218C142.582 104.216 142.93 104.362 143.188 104.621C143.445 104.881 143.589 105.232 143.589 105.599C143.589 105.966 143.445 106.318 143.188 106.577C142.93 106.836 142.582 106.982 142.218 106.982Z" fill="#2B4D66"/>
<path d="M130.9 106.982H104.193C103.83 106.982 103.481 106.836 103.224 106.577C102.967 106.318 102.822 105.966 102.822 105.599C102.822 105.232 102.967 104.881 103.224 104.621C103.481 104.362 103.83 104.216 104.193 104.216H130.9C131.263 104.216 131.612 104.362 131.869 104.621C132.126 104.881 132.271 105.232 132.271 105.599C132.271 105.966 132.126 106.318 131.869 106.577C131.612 106.836 131.263 106.982 130.9 106.982Z" fill="#2B4D66"/>
<path d="M147.486 95.181H126.184C125.82 95.181 125.472 95.0354 125.215 94.776C124.957 94.5167 124.813 94.165 124.813 93.7982C124.813 93.4315 124.957 93.0798 125.215 92.8204C125.472 92.5611 125.82 92.4154 126.184 92.4154H147.486C147.85 92.4154 148.199 92.5611 148.456 92.8204C148.713 93.0798 148.857 93.4315 148.857 93.7982C148.857 94.165 148.713 94.5167 148.456 94.776C148.199 95.0354 147.85 95.181 147.486 95.181Z" fill="#2B4D66"/>
</svg>
