<svg width="183" height="47" viewBox="0 0 183 47" fill="none" xmlns="http://www.w3.org/2000/svg">
<path d="M0 13C0 5.8203 5.8203 0 13 0H170C177.18 0 183 5.8203 183 13V34C183 41.1797 177.18 47 170 47H13C5.8203 47 0 41.1797 0 34V13Z" fill="#F5B666"/>
<path d="M50.1328 24.1416H40.8896V31.7002H51.627V34H38.0771V12.6719H51.4805V14.9863H40.8896V21.8418H50.1328V24.1416ZM60.0205 23.9365L63.5361 18.1504H66.7002L61.5146 25.9873L66.8613 34H63.7266L60.0645 28.0674L56.4023 34H53.2529L58.5996 25.9873L53.4141 18.1504H56.5488L60.0205 23.9365ZM75.8701 34.293C73.7217 34.293 71.9736 33.5898 70.626 32.1836C69.2783 30.7676 68.6045 28.8779 68.6045 26.5146V26.0166C68.6045 24.4443 68.9023 23.043 69.498 21.8125C70.1035 20.5723 70.9434 19.6055 72.0176 18.9121C73.1016 18.209 74.2734 17.8574 75.5332 17.8574C77.5938 17.8574 79.1953 18.5361 80.3379 19.8936C81.4805 21.251 82.0518 23.1943 82.0518 25.7236V26.8516H71.3145C71.3535 28.4141 71.8076 29.6787 72.6768 30.6455C73.5557 31.6025 74.6689 32.0811 76.0166 32.0811C76.9736 32.0811 77.7842 31.8857 78.4482 31.4951C79.1123 31.1045 79.6934 30.5869 80.1914 29.9424L81.8467 31.2314C80.5186 33.2725 78.5264 34.293 75.8701 34.293ZM75.5332 20.084C74.4395 20.084 73.5215 20.4844 72.7793 21.2852C72.0371 22.0762 71.5781 23.1895 71.4023 24.625H79.3418V24.4199C79.2637 23.043 78.8926 21.9785 78.2285 21.2266C77.5645 20.4648 76.666 20.084 75.5332 20.084ZM92.8623 20.582C92.4521 20.5137 92.0078 20.4795 91.5293 20.4795C89.752 20.4795 88.5459 21.2363 87.9111 22.75V34H85.2012V18.1504H87.8379L87.8818 19.9814C88.7705 18.5654 90.0303 17.8574 91.6611 17.8574C92.1885 17.8574 92.5889 17.9258 92.8623 18.0625V20.582ZM101.432 32.0811C102.398 32.0811 103.243 31.7881 103.966 31.2021C104.688 30.6162 105.089 29.8838 105.167 29.0049H107.73C107.682 29.9131 107.369 30.7773 106.793 31.5977C106.217 32.418 105.445 33.0723 104.479 33.5605C103.521 34.0488 102.506 34.293 101.432 34.293C99.2734 34.293 97.5547 33.5752 96.2754 32.1396C95.0059 30.6943 94.3711 28.7217 94.3711 26.2217V25.7676C94.3711 24.2246 94.6543 22.8525 95.2207 21.6514C95.7871 20.4502 96.5977 19.5176 97.6523 18.8535C98.7168 18.1895 99.9717 17.8574 101.417 17.8574C103.194 17.8574 104.669 18.3896 105.841 19.4541C107.022 20.5186 107.652 21.9004 107.73 23.5996H105.167C105.089 22.5742 104.698 21.7344 103.995 21.0801C103.302 20.416 102.442 20.084 101.417 20.084C100.04 20.084 98.9707 20.582 98.209 21.5781C97.457 22.5645 97.0811 23.9951 97.0811 25.8701V26.3828C97.0811 28.209 97.457 29.6152 98.209 30.6016C98.9609 31.5879 100.035 32.0811 101.432 32.0811ZM113.722 34H111.012V18.1504H113.722V34ZM110.792 13.9463C110.792 13.5068 110.924 13.1357 111.188 12.833C111.461 12.5303 111.861 12.3789 112.389 12.3789C112.916 12.3789 113.316 12.5303 113.59 12.833C113.863 13.1357 114 13.5068 114 13.9463C114 14.3857 113.863 14.752 113.59 15.0449C113.316 15.3379 112.916 15.4844 112.389 15.4844C111.861 15.4844 111.461 15.3379 111.188 15.0449C110.924 14.752 110.792 14.3857 110.792 13.9463ZM127.301 29.7959C127.301 29.0635 127.022 28.4971 126.466 28.0967C125.919 27.6865 124.957 27.335 123.58 27.042C122.213 26.749 121.124 26.3975 120.313 25.9873C119.513 25.5771 118.917 25.0889 118.526 24.5225C118.146 23.9561 117.955 23.2822 117.955 22.501C117.955 21.2021 118.502 20.1035 119.596 19.2051C120.699 18.3066 122.105 17.8574 123.814 17.8574C125.611 17.8574 127.066 18.3213 128.18 19.249C129.303 20.1768 129.864 21.3633 129.864 22.8086H127.14C127.14 22.0664 126.822 21.4268 126.188 20.8896C125.562 20.3525 124.771 20.084 123.814 20.084C122.828 20.084 122.057 20.2988 121.5 20.7285C120.943 21.1582 120.665 21.7197 120.665 22.4131C120.665 23.0674 120.924 23.5605 121.441 23.8926C121.959 24.2246 122.892 24.542 124.239 24.8447C125.597 25.1475 126.695 25.5088 127.535 25.9287C128.375 26.3486 128.995 26.8564 129.396 27.4521C129.806 28.0381 130.011 28.7559 130.011 29.6055C130.011 31.0215 129.444 32.1592 128.312 33.0186C127.179 33.8682 125.709 34.293 123.902 34.293C122.633 34.293 121.51 34.0684 120.533 33.6191C119.557 33.1699 118.79 32.5449 118.233 31.7441C117.687 30.9336 117.413 30.0596 117.413 29.1221H120.123C120.172 30.0303 120.533 30.7529 121.207 31.29C121.891 31.8174 122.789 32.0811 123.902 32.0811C124.928 32.0811 125.748 31.876 126.363 31.4658C126.988 31.0459 127.301 30.4893 127.301 29.7959ZM140.118 34.293C137.97 34.293 136.222 33.5898 134.874 32.1836C133.526 30.7676 132.853 28.8779 132.853 26.5146V26.0166C132.853 24.4443 133.15 23.043 133.746 21.8125C134.352 20.5723 135.191 19.6055 136.266 18.9121C137.35 18.209 138.521 17.8574 139.781 17.8574C141.842 17.8574 143.443 18.5361 144.586 19.8936C145.729 21.251 146.3 23.1943 146.3 25.7236V26.8516H135.562C135.602 28.4141 136.056 29.6787 136.925 30.6455C137.804 31.6025 138.917 32.0811 140.265 32.0811C141.222 32.0811 142.032 31.8857 142.696 31.4951C143.36 31.1045 143.941 30.5869 144.439 29.9424L146.095 31.2314C144.767 33.2725 142.774 34.293 140.118 34.293ZM139.781 20.084C138.688 20.084 137.77 20.4844 137.027 21.2852C136.285 22.0762 135.826 23.1895 135.65 24.625H143.59V24.4199C143.512 23.043 143.141 21.9785 142.477 21.2266C141.812 20.4648 140.914 20.084 139.781 20.084Z" fill="#004643"/>
</svg>
