<svg width="183" height="47" viewBox="0 0 183 47" fill="none" xmlns="http://www.w3.org/2000/svg">
<path d="M0 13C0 5.8203 5.8203 0 13 0H170C177.18 0 183 5.8203 183 13V34C183 41.1797 177.18 47 170 47H13C5.8203 47 0 41.1797 0 34V13Z" fill="#F5B666"/>
<path d="M70.2305 31.2021C69.5078 32.2373 68.4971 33.0137 67.1982 33.5312C65.9092 34.0391 64.4053 34.293 62.6865 34.293C60.9482 34.293 59.4053 33.8877 58.0576 33.0771C56.71 32.2568 55.665 31.0947 54.9229 29.5908C54.1904 28.0869 53.8145 26.3438 53.7949 24.3613V22.501C53.7949 19.2881 54.542 16.7979 56.0361 15.0303C57.54 13.2627 59.6494 12.3789 62.3643 12.3789C64.5908 12.3789 66.3828 12.9502 67.7402 14.0928C69.0977 15.2256 69.9277 16.8369 70.2305 18.9268H67.418C66.8906 16.1045 65.2109 14.6934 62.3789 14.6934C60.4941 14.6934 59.0635 15.3574 58.0869 16.6855C57.1201 18.0039 56.6318 19.918 56.6221 22.4277V24.1709C56.6221 26.5635 57.1689 28.4678 58.2627 29.8838C59.3564 31.29 60.8359 31.9932 62.7012 31.9932C63.7559 31.9932 64.6787 31.876 65.4697 31.6416C66.2607 31.4072 66.915 31.0117 67.4326 30.4551V25.665H62.4961V23.3799H70.2305V31.2021ZM84.293 34C84.1367 33.6875 84.0098 33.1309 83.9121 32.3301C82.6523 33.6387 81.1484 34.293 79.4004 34.293C77.8379 34.293 76.5537 33.8535 75.5479 32.9746C74.5518 32.0859 74.0537 30.9629 74.0537 29.6055C74.0537 27.9551 74.6787 26.6758 75.9287 25.7676C77.1885 24.8496 78.9561 24.3906 81.2314 24.3906H83.8682V23.1455C83.8682 22.1982 83.585 21.4463 83.0186 20.8896C82.4521 20.3232 81.6172 20.04 80.5137 20.04C79.5469 20.04 78.7363 20.2842 78.082 20.7725C77.4277 21.2607 77.1006 21.8516 77.1006 22.5449H74.376C74.376 21.7539 74.6543 20.9922 75.2109 20.2598C75.7773 19.5176 76.5391 18.9316 77.4961 18.502C78.4629 18.0723 79.5225 17.8574 80.6748 17.8574C82.501 17.8574 83.9316 18.3164 84.9668 19.2344C86.002 20.1426 86.5391 21.3975 86.5781 22.999V30.2939C86.5781 31.749 86.7637 32.9062 87.1348 33.7656V34H84.293ZM79.7959 31.9346C80.6455 31.9346 81.4512 31.7148 82.2129 31.2754C82.9746 30.8359 83.5264 30.2646 83.8682 29.5615V26.3096H81.7441C78.4238 26.3096 76.7637 27.2812 76.7637 29.2246C76.7637 30.0742 77.0469 30.7383 77.6133 31.2168C78.1797 31.6953 78.9072 31.9346 79.7959 31.9346ZM93.375 18.1504L93.4482 19.9082C94.6104 18.541 96.1777 17.8574 98.1504 17.8574C100.367 17.8574 101.876 18.707 102.677 20.4062C103.204 19.6445 103.888 19.0293 104.728 18.5605C105.577 18.0918 106.578 17.8574 107.73 17.8574C111.207 17.8574 112.975 19.6982 113.033 23.3799V34H110.323V23.541C110.323 22.4082 110.064 21.5635 109.547 21.0068C109.029 20.4404 108.16 20.1572 106.939 20.1572C105.934 20.1572 105.099 20.46 104.435 21.0654C103.771 21.6611 103.385 22.4668 103.277 23.4824V34H100.553V23.6143C100.553 21.3096 99.4248 20.1572 97.1689 20.1572C95.3916 20.1572 94.1758 20.9141 93.5215 22.4277V34H90.8115V18.1504H93.375ZM123.712 34.293C121.563 34.293 119.815 33.5898 118.468 32.1836C117.12 30.7676 116.446 28.8779 116.446 26.5146V26.0166C116.446 24.4443 116.744 23.043 117.34 21.8125C117.945 20.5723 118.785 19.6055 119.859 18.9121C120.943 18.209 122.115 17.8574 123.375 17.8574C125.436 17.8574 127.037 18.5361 128.18 19.8936C129.322 21.251 129.894 23.1943 129.894 25.7236V26.8516H119.156C119.195 28.4141 119.649 29.6787 120.519 30.6455C121.397 31.6025 122.511 32.0811 123.858 32.0811C124.815 32.0811 125.626 31.8857 126.29 31.4951C126.954 31.1045 127.535 30.5869 128.033 29.9424L129.688 31.2314C128.36 33.2725 126.368 34.293 123.712 34.293ZM123.375 20.084C122.281 20.084 121.363 20.4844 120.621 21.2852C119.879 22.0762 119.42 23.1895 119.244 24.625H127.184V24.4199C127.105 23.043 126.734 21.9785 126.07 21.2266C125.406 20.4648 124.508 20.084 123.375 20.084Z" fill="#004643"/>
</svg>
