<svg width="183" height="146" viewBox="0 0 183 146" fill="none" xmlns="http://www.w3.org/2000/svg">
<path d="M0 73C0 32.6832 32.6832 0 73 0H110C150.317 0 183 32.6832 183 73C183 113.317 150.317 146 110 146H73C32.6832 146 0 113.317 0 73Z" fill="#85C0CA"/>
<path d="M141.496 80.9937L130.228 49.1465C127.527 41.5133 120.365 36.4179 112.337 36.4179H69.6629C61.6344 36.4179 54.4726 41.5131 51.7719 49.1465L40.5041 80.9937C37.6762 88.9862 38.8818 97.8686 43.7348 104.799C47.2526 109.822 54.6246 109.848 58.177 104.85L69.368 89.1046C70.7557 87.152 72.9903 85.9941 75.3705 85.9941H106.629C109.01 85.9941 111.244 87.152 112.632 89.1046L123.823 104.85C127.375 109.848 134.747 109.822 138.265 104.799C143.118 97.8686 144.324 88.9862 141.496 80.9937Z" fill="#437991"/>
<path d="M141.496 80.9937L130.228 49.1465C127.527 41.5133 120.366 36.4179 112.337 36.4179H94.8557C102.884 36.4179 110.046 41.5131 112.747 49.1465L124.015 80.9937C126.545 88.1466 125.843 96.0108 122.19 102.552L123.823 104.85C127.376 109.848 134.748 109.822 138.265 104.799C143.118 97.8686 144.324 88.9862 141.496 80.9937Z" fill="#2A5875"/>
<path d="M75.0397 49.6896H71.019C70.7858 49.6896 70.5969 49.4986 70.5969 49.2634V45.2041C70.5969 44.4978 70.0298 43.9254 69.3304 43.9254H64.9963C64.2968 43.9254 63.7299 44.498 63.7299 45.2041V49.2634C63.7299 49.4989 63.5407 49.6896 63.3078 49.6896H59.2869C58.5873 49.6896 58.0204 50.2622 58.0204 50.9682V55.344C58.0204 56.0503 58.5875 56.6227 59.2869 56.6227H63.3076C63.5407 56.6227 63.7297 56.8136 63.7297 57.0488V61.1081C63.7297 61.8144 64.2968 62.3868 64.9961 62.3868H69.3302C70.0298 62.3868 70.5967 61.8142 70.5967 61.1081V57.0488C70.5967 56.8134 70.7858 56.6227 71.0188 56.6227H75.0394C75.739 56.6227 76.3059 56.0501 76.3059 55.344V50.9682C76.3061 50.2622 75.739 49.6896 75.0397 49.6896Z" fill="#DAE7EF"/>
<path d="M75.0396 49.6895H73.5536V52.5649C73.5536 53.2712 72.9864 53.8436 72.2871 53.8436H69.3221C68.5059 53.8436 67.8445 54.5115 67.8445 55.3353V58.3291C67.8445 59.0354 67.2774 59.6077 66.5781 59.6077H63.73V61.1081C63.73 61.8144 64.2972 62.3867 64.9965 62.3867H69.3306C70.0302 62.3867 70.5971 61.8142 70.5971 61.1081V57.0488C70.5971 56.8133 70.7862 56.6226 71.0192 56.6226H75.0398C75.7394 56.6226 76.3063 56.05 76.3063 55.344V50.9682C76.3061 50.2621 75.739 49.6895 75.0396 49.6895Z" fill="#C1D5E4"/>
<path d="M102.766 79.6611C107.009 79.6611 110.449 76.1882 110.449 71.9042C110.449 67.6202 107.009 64.1474 102.766 64.1474C98.5226 64.1474 95.0828 67.6202 95.0828 71.9042C95.0828 76.1882 98.5226 79.6611 102.766 79.6611Z" fill="#DAE7EF"/>
<path d="M79.259 79.6611C83.5022 79.6611 86.942 76.1882 86.942 71.9042C86.942 67.6202 83.5022 64.1474 79.259 64.1474C75.0158 64.1474 71.576 67.6202 71.576 71.9042C71.576 76.1882 75.0158 79.6611 79.259 79.6611Z" fill="#DAE7EF"/>
<path d="M104.663 64.3863C104.818 64.9991 104.9 65.641 104.9 66.3021C104.9 70.5862 101.46 74.059 97.217 74.059C96.5622 74.059 95.9264 73.9757 95.3195 73.8201C96.1645 77.1774 99.1776 79.6611 102.766 79.6611C107.009 79.6611 110.449 76.1883 110.449 71.9043C110.449 68.2815 107.989 65.2392 104.663 64.3863Z" fill="#C1D5E4"/>
<path d="M81.1565 64.3863C81.3107 64.9991 81.3932 65.641 81.3932 66.3021C81.3932 70.5862 77.9535 74.059 73.7102 74.059C73.0553 74.059 72.4195 73.9757 71.8126 73.8201C72.6574 77.1774 75.6707 79.6611 79.2589 79.6611C83.5022 79.6611 86.9419 76.1883 86.9419 71.9043C86.9419 68.2815 84.4819 65.2394 81.1565 64.3863Z" fill="#C1D5E4"/>
<path d="M91.0335 55.8797C93.5567 55.8797 95.6022 53.8145 95.6022 51.267C95.6022 48.7196 93.5567 46.6544 91.0335 46.6544C88.5103 46.6544 86.4648 48.7196 86.4648 51.267C86.4648 53.8145 88.5103 55.8797 91.0335 55.8797Z" fill="#DAE7EF"/>
<path d="M92.8279 47.0242C93.0635 47.5803 93.1942 48.1927 93.1942 48.8358C93.1942 51.3833 91.1487 53.4484 88.6255 53.4484C87.9885 53.4484 87.3819 53.3164 86.8311 53.0787C87.5284 54.7255 89.1473 55.8796 91.0335 55.8796C93.5567 55.8796 95.6022 53.8145 95.6022 51.267C95.6022 49.3627 94.459 47.7282 92.8279 47.0242Z" fill="#C1D5E4"/>
<path d="M114.749 44.8341C113.333 44.8341 112.184 45.9934 112.184 47.4235C112.184 48.8535 113.333 50.0128 114.749 50.0128C116.166 50.0128 117.314 48.8535 117.314 47.4235C117.314 45.9934 116.166 44.8341 114.749 44.8341Z" fill="#F9CD8B"/>
<path d="M114.749 61.5213C116.166 61.5213 117.314 60.362 117.314 58.932C117.314 57.502 116.165 56.3427 114.749 56.3427C113.333 56.3427 112.184 57.502 112.184 58.932C112.184 60.362 113.333 61.5213 114.749 61.5213Z" fill="#40B459"/>
<path d="M120.448 55.767C121.865 55.767 123.013 54.6078 123.013 53.1777C123.013 51.7477 121.865 50.5884 120.448 50.5884C119.032 50.5884 117.884 51.7477 117.884 53.1777C117.884 54.6078 119.032 55.767 120.448 55.767Z" fill="#C91844"/>
<path d="M111.614 53.1777C111.614 51.7477 110.466 50.5884 109.049 50.5884C107.633 50.5884 106.485 51.7477 106.485 53.1777C106.485 54.6077 107.633 55.767 109.049 55.767C110.466 55.7672 111.614 54.6077 111.614 53.1777Z" fill="#56CAD4"/>
<path d="M102.766 81.1992C97.6891 81.1992 93.5592 77.0295 93.5592 71.9042C93.5592 66.7789 97.6891 62.6093 102.766 62.6093C107.842 62.6093 111.972 66.7791 111.972 71.9042C111.972 77.0293 107.842 81.1992 102.766 81.1992ZM102.766 65.6855C99.3692 65.6855 96.606 68.4753 96.606 71.9042C96.606 75.3331 99.3694 78.123 102.766 78.123C106.162 78.123 108.925 75.3333 108.925 71.9042C108.925 68.4751 106.162 65.6855 102.766 65.6855Z" fill="#C91844"/>
<path d="M79.259 81.1992C74.1825 81.1992 70.0525 77.0293 70.0525 71.9042C70.0525 66.7791 74.1825 62.6093 79.259 62.6093C84.3355 62.6093 88.4654 66.7791 88.4654 71.9042C88.4654 77.0293 84.3355 81.1992 79.259 81.1992ZM79.259 65.6855C75.8625 65.6855 73.0994 68.4753 73.0994 71.9042C73.0994 75.3331 75.8627 78.123 79.259 78.123C82.6552 78.123 85.4185 75.3331 85.4185 71.9042C85.4185 68.4753 82.6552 65.6855 79.259 65.6855Z" fill="#C91844"/>
</svg>
