<svg width="183" height="146" viewBox="0 0 183 146" fill="none" xmlns="http://www.w3.org/2000/svg">
<path d="M0 73C0 32.6832 32.6832 0 73 0H110C150.317 0 183 32.6832 183 73C183 113.317 150.317 146 110 146H73C32.6832 146 0 113.317 0 73Z" fill="#85C0CA"/>
<g clip-path="url(#clip0)">
<path d="M36.9456 60.8093L26.2694 100.348C25.1476 104.502 27.6321 108.772 31.8183 109.885L71.6633 120.479C75.8497 121.593 80.1526 119.127 81.2744 114.973L91.9506 75.4347C93.0724 71.2805 90.5879 67.0107 86.4018 65.8975L46.5568 55.3032C42.3706 54.1898 38.0677 56.6551 36.9456 60.8093Z" fill="#C91844"/>
<path d="M38.9776 57.3188C39.6812 59.9149 41.7206 62.079 44.5258 62.8245L76.1592 71.2354C80.6945 72.4413 83.3859 77.0672 82.1707 81.5675L73.6945 112.958C72.9422 115.742 73.8118 118.576 75.7255 120.478C78.3418 119.78 80.5231 117.757 81.2744 114.973L91.9506 75.4345C93.0724 71.2803 90.5879 67.0105 86.4018 65.8973L46.5567 55.3029C43.7516 54.5569 40.8951 55.4199 38.9776 57.3188Z" fill="#AC1147"/>
<path d="M135.443 24.5206L95.598 35.1147C91.4116 36.2278 88.9273 40.4979 90.0491 44.6519L100.725 84.1904C101.847 88.3446 106.15 90.8097 110.336 89.6966L150.181 79.1022C154.368 77.9891 156.852 73.7192 155.73 69.565L145.054 30.0265C143.933 25.8731 139.629 23.4074 135.443 24.5206Z" fill="#C91844"/>
<path d="M95.598 35.115C92.7928 35.861 90.754 38.025 90.0502 40.6211C91.9679 42.5201 94.8241 43.3828 97.6293 42.6368L129.262 34.2258C133.798 33.02 138.459 35.6907 139.675 40.1911L148.151 71.5811C148.903 74.3647 151.083 76.3879 153.7 77.0863C155.613 75.1833 156.483 72.3491 155.731 69.5655L145.055 30.027C143.933 25.8728 139.63 23.4077 135.443 24.5208L95.598 35.115Z" fill="#AC1147"/>
<path d="M114.358 48.8537C114.358 45.6282 111.723 43.0134 108.472 43.0134C105.222 43.0134 102.587 45.6282 102.587 48.8537C102.587 52.0792 105.222 54.694 108.472 54.694C111.723 54.694 114.358 52.0792 114.358 48.8537Z" fill="#FEF6E0"/>
<path d="M143.19 65.3732C143.19 62.1477 140.555 59.533 137.304 59.533C134.054 59.533 131.419 62.1477 131.419 65.3732C131.419 68.5987 134.054 71.2135 137.304 71.2135C140.555 71.2135 143.19 68.5987 143.19 65.3732Z" fill="#FEF6E0"/>
<path d="M128.776 57.1089C128.776 53.8834 126.141 51.2686 122.891 51.2686C119.64 51.2686 117.005 53.8834 117.005 57.1089C117.005 60.3344 119.64 62.9492 122.891 62.9492C126.141 62.9492 128.776 60.3344 128.776 57.1089Z" fill="#FEF6E0"/>
<path d="M50.5809 96.1526C50.5809 92.9271 47.9459 90.3123 44.6954 90.3123C41.4449 90.3123 38.8098 92.9271 38.8098 96.1526C38.8098 99.3781 41.4449 101.993 44.6954 101.993C47.9459 101.993 50.5809 99.3781 50.5809 96.1526Z" fill="#FEF6E0"/>
<path d="M56.6719 73.5851C56.6719 70.3597 54.0368 67.7449 50.7863 67.7449C47.5358 67.7449 44.9008 70.3597 44.9008 73.5851C44.9008 76.8106 47.5358 79.4254 50.7863 79.4254C54.0368 79.4254 56.6719 76.8106 56.6719 73.5851Z" fill="#FEF6E0"/>
<path d="M73.3192 102.198C73.3192 98.9722 70.6842 96.3574 67.4337 96.3574C64.1832 96.3574 61.5482 98.9722 61.5482 102.198C61.5482 105.423 64.1832 108.038 67.4337 108.038C70.6842 108.038 73.3192 105.423 73.3192 102.198Z" fill="#FEF6E0"/>
<path d="M79.4148 79.6341C79.4148 76.4086 76.7797 73.7938 73.5292 73.7938C70.2787 73.7938 67.6437 76.4086 67.6437 79.6341C67.6437 82.8596 70.2787 85.4743 73.5292 85.4743C76.7797 85.4743 79.4148 82.8596 79.4148 79.6341Z" fill="#FEF6E0"/>
</g>
<defs>
<clipPath id="clip0">
<rect width="129" height="130" fill="white" transform="translate(26 137) rotate(-90)"/>
</clipPath>
</defs>
</svg>
