<svg width="183" height="47" viewBox="0 0 183 47" fill="none" xmlns="http://www.w3.org/2000/svg">
<path d="M0 13C0 5.8203 5.8203 0 13 0H170C177.18 0 183 5.8203 183 13V34C183 41.1797 177.18 47 170 47H13C5.8203 47 0 41.1797 0 34V13Z" fill="#F5B666"/>
<path d="M45.9434 25.3721H40.9336V34H38.1064V12.6719H45.167C47.5693 12.6719 49.415 13.2187 50.7041 14.3125C52.0029 15.4063 52.6523 16.998 52.6523 19.0879C52.6523 20.416 52.291 21.5732 51.5684 22.5596C50.8555 23.5459 49.8594 24.2832 48.5801 24.7715L53.5898 33.8242V34H50.5723L45.9434 25.3721ZM40.9336 23.0723H45.2549C46.6514 23.0723 47.7598 22.7109 48.5801 21.9883C49.4102 21.2656 49.8252 20.2988 49.8252 19.0879C49.8252 17.7695 49.4297 16.7588 48.6387 16.0557C47.8574 15.3525 46.7246 14.9961 45.2402 14.9863H40.9336V23.0723ZM65.9678 34C65.8115 33.6875 65.6846 33.1309 65.5869 32.3301C64.3271 33.6387 62.8232 34.293 61.0752 34.293C59.5127 34.293 58.2285 33.8535 57.2227 32.9746C56.2266 32.0859 55.7285 30.9629 55.7285 29.6055C55.7285 27.9551 56.3535 26.6758 57.6035 25.7676C58.8633 24.8496 60.6309 24.3906 62.9062 24.3906H65.543V23.1455C65.543 22.1982 65.2598 21.4463 64.6934 20.8896C64.127 20.3232 63.292 20.04 62.1885 20.04C61.2217 20.04 60.4111 20.2842 59.7568 20.7725C59.1025 21.2607 58.7754 21.8516 58.7754 22.5449H56.0508C56.0508 21.7539 56.3291 20.9922 56.8857 20.2598C57.4521 19.5176 58.2139 18.9316 59.1709 18.502C60.1377 18.0723 61.1973 17.8574 62.3496 17.8574C64.1758 17.8574 65.6064 18.3164 66.6416 19.2344C67.6768 20.1426 68.2139 21.3975 68.2529 22.999V30.2939C68.2529 31.749 68.4385 32.9062 68.8096 33.7656V34H65.9678ZM61.4707 31.9346C62.3203 31.9346 63.126 31.7148 63.8877 31.2754C64.6494 30.8359 65.2012 30.2646 65.543 29.5615V26.3096H63.4189C60.0986 26.3096 58.4385 27.2812 58.4385 29.2246C58.4385 30.0742 58.7217 30.7383 59.2881 31.2168C59.8545 31.6953 60.582 31.9346 61.4707 31.9346ZM75.0645 18.1504L75.1523 20.1426C76.3633 18.6191 77.9453 17.8574 79.8984 17.8574C83.248 17.8574 84.9375 19.7471 84.9668 23.5264V34H82.2568V23.5117C82.2471 22.3691 81.9834 21.5244 81.4658 20.9775C80.958 20.4307 80.1621 20.1572 79.0781 20.1572C78.1992 20.1572 77.4277 20.3916 76.7637 20.8604C76.0996 21.3291 75.582 21.9443 75.2109 22.7061V34H72.501V18.1504H75.0645ZM88.3945 25.9434C88.3945 23.5117 88.9707 21.5586 90.123 20.084C91.2754 18.5996 92.7842 17.8574 94.6494 17.8574C96.5049 17.8574 97.9746 18.4922 99.0586 19.7617V11.5H101.769V34H99.2783L99.1465 32.3008C98.0625 33.6289 96.5537 34.293 94.6201 34.293C92.7842 34.293 91.2852 33.541 90.123 32.0371C88.9707 30.5332 88.3945 28.5703 88.3945 26.1484V25.9434ZM91.1045 26.251C91.1045 28.0479 91.4756 29.4541 92.2178 30.4697C92.96 31.4854 93.9854 31.9932 95.2939 31.9932C97.0127 31.9932 98.2676 31.2217 99.0586 29.6787V22.3984C98.248 20.9043 97.0029 20.1572 95.3232 20.1572C93.9951 20.1572 92.96 20.6699 92.2178 21.6953C91.4756 22.7207 91.1045 24.2393 91.1045 26.251ZM105.27 25.9287C105.27 24.376 105.572 22.9795 106.178 21.7393C106.793 20.499 107.643 19.542 108.727 18.8682C109.82 18.1943 111.065 17.8574 112.462 17.8574C114.62 17.8574 116.363 18.6045 117.691 20.0986C119.029 21.5928 119.698 23.5801 119.698 26.0605V26.251C119.698 27.7939 119.4 29.1807 118.805 30.4111C118.219 31.6318 117.374 32.584 116.271 33.2676C115.177 33.9512 113.917 34.293 112.491 34.293C110.343 34.293 108.6 33.5459 107.262 32.0518C105.934 30.5576 105.27 28.5801 105.27 26.1191V25.9287ZM107.994 26.251C107.994 28.0088 108.399 29.4199 109.21 30.4844C110.03 31.5488 111.124 32.0811 112.491 32.0811C113.868 32.0811 114.962 31.5439 115.772 30.4697C116.583 29.3857 116.988 27.8721 116.988 25.9287C116.988 24.1904 116.573 22.7842 115.743 21.71C114.923 20.626 113.829 20.084 112.462 20.084C111.124 20.084 110.045 20.6162 109.225 21.6807C108.404 22.7451 107.994 24.2686 107.994 26.251ZM125.646 18.1504L125.719 19.9082C126.881 18.541 128.448 17.8574 130.421 17.8574C132.638 17.8574 134.146 18.707 134.947 20.4062C135.475 19.6445 136.158 19.0293 136.998 18.5605C137.848 18.0918 138.849 17.8574 140.001 17.8574C143.478 17.8574 145.245 19.6982 145.304 23.3799V34H142.594V23.541C142.594 22.4082 142.335 21.5635 141.817 21.0068C141.3 20.4404 140.431 20.1572 139.21 20.1572C138.204 20.1572 137.369 20.46 136.705 21.0654C136.041 21.6611 135.655 22.4668 135.548 23.4824V34H132.823V23.6143C132.823 21.3096 131.695 20.1572 129.439 20.1572C127.662 20.1572 126.446 20.9141 125.792 22.4277V34H123.082V18.1504H125.646Z" fill="#004643"/>
</svg>
