<svg width="183" height="47" viewBox="0 0 183 47" fill="none" xmlns="http://www.w3.org/2000/svg">
<path d="M0 13C0 5.8203 5.8203 0 13 0H170C177.18 0 183 5.8203 183 13V34C183 41.1797 177.18 47 170 47H13C5.8203 47 0 41.1797 0 34V13Z" fill="#F5B666"/>
<path d="M71.0068 24.4932C68.5947 23.7998 66.8369 22.9502 65.7334 21.9443C64.6396 20.9287 64.0928 19.6787 64.0928 18.1943C64.0928 16.5146 64.7617 15.1279 66.0996 14.0342C67.4473 12.9307 69.1953 12.3789 71.3438 12.3789C72.8086 12.3789 74.1123 12.6621 75.2549 13.2285C76.4072 13.7949 77.2959 14.5762 77.9209 15.5723C78.5557 16.5684 78.873 17.6572 78.873 18.8389H76.0459C76.0459 17.5498 75.6357 16.5391 74.8154 15.8066C73.9951 15.0645 72.8379 14.6934 71.3438 14.6934C69.957 14.6934 68.873 15.001 68.0918 15.6162C67.3203 16.2217 66.9346 17.0664 66.9346 18.1504C66.9346 19.0195 67.3008 19.7568 68.0332 20.3623C68.7754 20.958 70.0303 21.5049 71.7979 22.0029C73.5752 22.501 74.9619 23.0527 75.958 23.6582C76.9639 24.2539 77.7061 24.9521 78.1846 25.7529C78.6729 26.5537 78.917 27.4961 78.917 28.5801C78.917 30.3086 78.2432 31.6953 76.8955 32.7402C75.5479 33.7754 73.7461 34.293 71.4902 34.293C70.0254 34.293 68.6582 34.0146 67.3887 33.458C66.1191 32.8916 65.1377 32.1201 64.4443 31.1436C63.7607 30.167 63.4189 29.0586 63.4189 27.8184H66.2461C66.2461 29.1074 66.7197 30.1279 67.667 30.8799C68.624 31.6221 69.8984 31.9932 71.4902 31.9932C72.9746 31.9932 74.1123 31.6904 74.9033 31.085C75.6943 30.4795 76.0898 29.6543 76.0898 28.6094C76.0898 27.5645 75.7236 26.7588 74.9912 26.1924C74.2588 25.6162 72.9307 25.0498 71.0068 24.4932ZM85.0547 34H82.3447V18.1504H85.0547V34ZM82.125 13.9463C82.125 13.5068 82.2568 13.1357 82.5205 12.833C82.7939 12.5303 83.1943 12.3789 83.7217 12.3789C84.249 12.3789 84.6494 12.5303 84.9229 12.833C85.1963 13.1357 85.333 13.5068 85.333 13.9463C85.333 14.3857 85.1963 14.752 84.9229 15.0449C84.6494 15.3379 84.249 15.4844 83.7217 15.4844C83.1943 15.4844 82.7939 15.3379 82.5205 15.0449C82.2568 14.752 82.125 14.3857 82.125 13.9463ZM91.9688 18.1504L92.0566 20.1426C93.2676 18.6191 94.8496 17.8574 96.8027 17.8574C100.152 17.8574 101.842 19.7471 101.871 23.5264V34H99.1611V23.5117C99.1514 22.3691 98.8877 21.5244 98.3701 20.9775C97.8623 20.4307 97.0664 20.1572 95.9824 20.1572C95.1035 20.1572 94.332 20.3916 93.668 20.8604C93.0039 21.3291 92.4863 21.9443 92.1152 22.7061V34H89.4053V18.1504H91.9688ZM105.313 25.9434C105.313 23.4727 105.885 21.5098 107.027 20.0547C108.17 18.5898 109.684 17.8574 111.568 17.8574C113.502 17.8574 115.011 18.541 116.095 19.9082L116.227 18.1504H118.702V33.6191C118.702 35.6699 118.092 37.2861 116.871 38.4678C115.66 39.6494 114.029 40.2402 111.979 40.2402C110.836 40.2402 109.718 39.9961 108.624 39.5078C107.53 39.0195 106.695 38.3506 106.119 37.501L107.525 35.875C108.688 37.3105 110.108 38.0283 111.788 38.0283C113.106 38.0283 114.132 37.6572 114.864 36.915C115.606 36.1729 115.978 35.1279 115.978 33.7803V32.418C114.894 33.668 113.414 34.293 111.539 34.293C109.684 34.293 108.18 33.5459 107.027 32.0518C105.885 30.5576 105.313 28.5215 105.313 25.9434ZM108.038 26.251C108.038 28.0381 108.404 29.4443 109.137 30.4697C109.869 31.4854 110.895 31.9932 112.213 31.9932C113.922 31.9932 115.177 31.2168 115.978 29.6641V22.4277C115.147 20.9141 113.902 20.1572 112.242 20.1572C110.924 20.1572 109.894 20.6699 109.151 21.6953C108.409 22.7207 108.038 24.2393 108.038 26.251Z" fill="#004643"/>
</svg>
