<svg width="183" height="146" viewBox="0 0 183 146" fill="none" xmlns="http://www.w3.org/2000/svg">
<path d="M0 73C0 32.6832 32.6832 0 73 0H110C150.317 0 183 32.6832 183 73C183 113.317 150.317 146 110 146H73C32.6832 146 0 113.317 0 73Z" fill="#85C0CA"/>
<path d="M106.259 98.4792C103.954 96.1945 100.877 94.9362 97.5938 94.9362C94.3111 94.9362 91.2346 96.1939 88.9303 98.478C88.9301 98.4782 88.9299 98.4784 88.9297 98.4786L88.9291 98.4792L71.7969 115.443C70.0374 117.185 67.6859 118.144 65.1751 118.144C62.6641 118.144 60.3109 117.185 58.5496 115.443C54.895 111.824 54.895 105.936 58.5496 102.318C59.1126 101.76 59.1122 100.856 58.5488 100.299C57.9854 99.7423 57.072 99.7424 56.5091 100.3C51.7309 105.031 51.7309 112.73 56.5097 117.461C58.8167 119.742 61.894 120.999 65.1751 120.999C68.4566 120.999 71.533 119.742 73.8373 117.46L90.9701 100.496C90.9703 100.496 90.9703 100.496 90.9705 100.496C90.9705 100.496 90.9707 100.495 90.9709 100.495C92.7301 98.7508 95.0822 97.7903 97.5939 97.7903C100.106 97.7903 102.458 98.7508 104.218 100.496C107.873 104.115 107.873 110.001 104.217 113.616L99.2251 118.564C98.6625 119.122 98.6632 120.026 99.2268 120.583C99.5084 120.861 99.877 121 100.246 121C100.615 121 100.985 120.86 101.267 120.581L106.257 115.634C111.037 110.907 111.038 103.211 106.259 98.4792Z" fill="#2A5875"/>
<path d="M56.8839 55.4837C56.0872 55.4837 55.4416 54.8447 55.4416 54.0565V35.2467C55.4416 34.6303 55.8413 34.0838 56.433 33.891L74.7219 27.9349C75.1612 27.7917 75.6434 27.8659 76.0183 28.1342C76.393 28.4027 76.6151 28.8327 76.6151 29.2905V45.3756C76.6151 46.1638 75.9692 46.8028 75.1728 46.8028C74.3761 46.8028 73.7304 46.1638 73.7304 45.3756V31.2628L58.3264 36.2794V54.0567C58.3264 54.8449 57.6805 55.4837 56.8839 55.4837Z" fill="#DAE7EF"/>
<path fill-rule="evenodd" clip-rule="evenodd" d="M71.1872 101.309L73.1075 99.4073L68.6104 90.3899L59.4496 85.8839L57.5293 87.7853C53.7746 91.5085 53.7746 97.5912 57.5293 101.309C61.2839 105.027 67.4271 105.027 71.1872 101.309Z" fill="#91F0F0"/>
<path fill-rule="evenodd" clip-rule="evenodd" d="M73.1075 99.4073L102.79 70.0165L97.8842 60.7699L89.1322 56.4931L59.4496 85.8837L73.1075 99.4073Z" fill="#DAE7EF"/>
<path fill-rule="evenodd" clip-rule="evenodd" d="M131.616 53.0729C131.351 53.4743 131.068 53.8664 130.768 54.2507C130.476 54.6237 130.166 54.9891 129.839 55.3429C129.651 55.5503 129.453 55.7539 129.251 55.9557L126.012 59.1621C125.81 59.362 125.602 59.5579 125.393 59.7445C125.035 60.0679 124.666 60.3743 124.291 60.6636C123.902 60.9604 123.506 61.2421 123.101 61.5047C118.643 64.3894 113.17 65.1582 108.175 63.8054L99.2886 59.9616L95.4038 51.1607C94.0385 46.2171 94.8135 40.7976 97.7309 36.3829C97.9944 35.9815 98.279 35.5876 98.5791 35.2032C98.8695 34.8321 99.1791 34.4667 99.5061 34.1129C99.6946 33.9055 99.8926 33.7 100.095 33.5001L103.339 30.2939C103.539 30.094 103.745 29.8999 103.952 29.7096C104.31 29.3862 104.679 29.0798 105.06 28.7905C105.447 28.4937 105.843 28.2139 106.247 27.9514C113.345 23.3498 123.026 24.1281 129.251 30.2935C135.474 36.4549 136.262 46.0418 131.616 53.0729Z" fill="#437991"/>
<path fill-rule="evenodd" clip-rule="evenodd" d="M108.175 69.5798C109.778 67.9926 109.778 65.3933 108.175 63.8061L95.4044 51.1613C93.8015 49.5741 91.1817 49.5741 89.5788 51.1613L88.4221 52.3065C87.4538 53.2652 87.4538 54.8312 88.4221 55.7899L89.1322 56.493L102.79 70.0167L103.5 70.7198C104.468 71.6785 106.05 71.6785 107.018 70.7198L108.175 69.5798Z" fill="#91F0F0"/>
<path fill-rule="evenodd" clip-rule="evenodd" d="M57.5293 101.309C61.2841 105.026 67.4271 105.026 71.1872 101.309L73.1075 99.4073L69.4603 95.796L67.5346 97.6975C64.4091 100.792 59.6325 101.309 55.9531 99.258C56.3727 99.9932 56.9 100.686 57.5293 101.309Z" fill="#56CAD4"/>
<path fill-rule="evenodd" clip-rule="evenodd" d="M102.79 70.0165L103.5 70.7196C104.468 71.6783 106.05 71.6783 107.018 70.7196L108.175 69.5798C109.778 67.9926 109.778 65.3933 108.175 63.8061L104.528 60.1949C105.243 60.9032 105.636 61.8087 105.711 62.7409C105.808 63.8967 105.415 65.0845 104.528 65.9633L103.371 67.1085C102.892 67.5825 102.258 67.8224 101.628 67.8276C100.999 67.8329 100.369 67.6039 99.8854 67.1404L102.79 70.0165Z" fill="#56CAD4"/>
<path fill-rule="evenodd" clip-rule="evenodd" d="M99.1376 66.4052L70.6977 94.5709L69.4606 95.7961L73.1077 99.4073L102.79 70.0165L99.8856 67.1402C99.8748 67.1296 99.8587 67.1189 99.8479 67.1084L99.1376 66.4052Z" fill="#C1D5E4"/>
<path fill-rule="evenodd" clip-rule="evenodd" d="M104.528 60.1949H104.533H104.528ZM108.175 63.8061C113.624 65.2816 119.643 64.2323 124.291 60.6636C124.888 60.2056 125.464 59.7049 126.012 59.1616L129.251 55.9551C129.799 55.4117 130.305 54.8419 130.768 54.2507C136.335 47.1454 135.829 36.8071 129.251 30.2929C128.632 29.6804 127.976 29.1211 127.298 28.6152C132.22 35.1134 132.161 44.2 127.12 50.6343C126.652 51.2254 126.147 51.7954 125.598 52.3386L122.36 55.5451C121.811 56.0884 121.236 56.5891 120.638 57.0524C115.996 60.6211 109.977 61.6651 104.528 60.1896V60.1949H104.533L108.175 63.8061Z" fill="#2A5875"/>
<path fill-rule="evenodd" clip-rule="evenodd" d="M131.709 88.8239L135.582 84.2112C136.378 83.3164 136.324 83.0447 135.152 82.7624L129.143 81.2869C128.465 81.1217 128.422 80.9408 128.089 80.3922L125.05 75.3694C124.436 74.3521 124.06 74.3521 123.447 75.3694L120.407 80.3922C120.074 80.9408 120.036 81.1219 119.353 81.2869L113.345 82.7624C112.177 83.0447 112.118 83.3162 112.914 84.2112L116.787 88.8239C117.207 89.3245 117.266 89.8945 117.207 90.5922L116.744 96.2967C116.615 97.4845 116.868 97.6283 117.982 97.1809L123.269 95.0024C123.818 94.7734 124.679 94.7734 125.227 95.0024L130.515 97.1809C131.634 97.6283 131.882 97.4845 131.752 96.2967L131.29 90.5922C131.236 89.8945 131.289 89.3245 131.709 88.8239Z" fill="#F9CD8B"/>
<path fill-rule="evenodd" clip-rule="evenodd" d="M124.474 84.0673C123.678 89.0635 122.01 93.4152 119.977 96.3552L123.269 95.0023C123.817 94.7734 124.678 94.7734 125.227 95.0023L130.515 97.1809C131.634 97.6283 131.881 97.4845 131.752 96.2967L131.289 90.5922C131.235 89.8945 131.289 89.3245 131.709 88.8239L135.582 84.2059C136.378 83.3164 136.324 83.0447 135.152 82.7625L129.143 81.2871C128.465 81.1219 128.422 80.941 128.089 80.3923L125.049 75.3696C124.953 75.2044 124.861 75.0713 124.775 74.9595C125.065 77.6811 124.99 80.8024 124.474 84.0673Z" fill="#F5B666"/>
<path d="M125.393 59.7443C125.035 60.0677 124.666 60.3741 124.291 60.6634C123.903 60.9602 123.506 61.2419 123.101 61.5045L116.768 55.2327C116.204 54.675 116.204 53.7713 116.768 53.2137C117.331 52.6581 118.245 52.6581 118.808 53.2155L125.31 59.6549C125.339 59.6834 125.368 59.7139 125.393 59.7443Z" fill="#DAE7EF"/>
<path d="M106.1 42.6527C105.819 42.9306 105.45 43.0695 105.081 43.0695C104.712 43.0695 104.342 42.9306 104.062 42.6527L97.7307 36.3827C97.9942 35.9813 98.2788 35.5873 98.5789 35.203C98.8693 34.8319 99.1789 34.4665 99.5059 34.1127C99.5387 34.1374 99.5694 34.1659 99.5982 34.1944L106.102 40.6337C106.666 41.1912 106.664 42.0951 106.1 42.6527Z" fill="#DAE7EF"/>
<path d="M112.583 36.2401C112.302 36.5179 111.933 36.6569 111.564 36.6569C111.195 36.6569 110.825 36.5179 110.545 36.2401L104.035 29.8007C104.006 29.7722 103.977 29.7417 103.952 29.7094C104.31 29.386 104.679 29.0796 105.06 28.7903C105.446 28.4935 105.843 28.2137 106.246 27.9512L112.583 34.2212C113.147 34.7785 113.147 35.6824 112.583 36.2401Z" fill="#DAE7EF"/>
<path d="M131.616 53.0729C131.351 53.4743 131.068 53.8664 130.768 54.2508C130.476 54.6237 130.166 54.9891 129.839 55.3429C129.806 55.3163 129.776 55.2878 129.747 55.2593L123.243 48.82C122.681 48.2624 122.681 47.3586 123.245 46.801C123.808 46.2434 124.722 46.2454 125.283 46.8029L131.616 53.0729Z" fill="#DAE7EF"/>
<path d="M79.6218 80.0564C79.2528 80.0564 78.8839 79.9172 78.6024 79.6388C78.0389 79.0817 78.0386 78.178 78.6016 77.6206L85.1052 71.1811C85.668 70.6232 86.5814 70.6232 87.1448 71.1803C87.7083 71.7374 87.7086 72.6411 87.1456 73.1986L80.642 79.6381C80.3603 79.9169 79.9909 80.0564 79.6218 80.0564Z" fill="#C91844"/>
<path fill-rule="evenodd" clip-rule="evenodd" d="M52.7148 61.1642C55.9315 60.5037 58.5458 57.7714 58.5458 55.0549C58.5458 52.3439 55.9315 50.6766 52.7148 51.3317C49.4927 51.9921 46.8838 54.73 46.8838 57.4411C46.8838 60.1576 49.4927 61.8246 52.7148 61.1642Z" fill="#91F0F0"/>
<path fill-rule="evenodd" clip-rule="evenodd" d="M54.2694 56.5463C54.2694 58.3201 53.156 60.0991 51.4885 61.3081C51.8865 61.2974 52.2953 61.2496 52.715 61.1642C55.9317 60.5037 58.546 57.7714 58.546 55.0549C58.546 52.3439 55.9317 50.6766 52.715 51.3317C51.5961 51.5609 50.5471 52.0401 49.6597 52.6846C52.2953 52.6208 54.2694 54.1866 54.2694 56.5463Z" fill="#56CAD4"/>
<path fill-rule="evenodd" clip-rule="evenodd" d="M71.2732 52.6474C74.49 51.9869 77.1042 49.2546 77.1042 46.5381C77.1042 43.8271 74.49 42.1598 71.2732 42.8204C68.051 43.4755 65.4423 46.2132 65.4423 48.9244C65.4421 51.6408 68.051 53.3078 71.2732 52.6474Z" fill="#91F0F0"/>
<path fill-rule="evenodd" clip-rule="evenodd" d="M72.8279 48.0295C72.8279 49.8033 71.7198 51.5823 70.0522 52.7913C70.4449 52.7806 70.8538 52.7328 71.2732 52.6474C74.4899 51.9869 77.1042 49.2546 77.1042 46.5381C77.1042 43.8271 74.4899 42.1598 71.2732 42.8204C70.1543 43.0495 69.1108 43.5287 68.2232 44.1679C70.8536 44.1038 72.8279 45.6698 72.8279 48.0295Z" fill="#56CAD4"/>
</svg>
