<svg width="340" height="253" viewBox="0 0 340 253" fill="none" xmlns="http://www.w3.org/2000/svg">
<path d="M325.834 143.211C317.334 143.211 308.834 142.367 304.584 147.434C293.251 159.257 266.334 163.48 246.5 156.724C239.417 154.19 235.167 151.656 230.917 147.434C225.25 141.522 209.667 141.522 204 147.434C192.667 159.257 165.75 163.48 145.917 156.724C138.833 154.19 134.583 151.656 130.333 147.434C126.083 141.522 111.917 142.367 106.25 147.434C94.916 159.257 67.9995 163.48 48.1659 156.724C36.8323 153.346 32.5823 144.056 21.2494 143.211C11.3336 142.367 0 144.9 0 151.656V244.555C0 249.622 5.66646 253 14.1665 253H325.834C334.334 253 340 249.622 340 244.555V151.656C340.001 146.589 334.334 143.211 325.834 143.211Z" fill="#015871"/>
<path d="M76.5081 81.2752C85.073 81.2752 92.0162 74.332 92.0162 65.7671C92.0162 57.2022 85.073 50.259 76.5081 50.259C67.9432 50.259 61 57.2022 61 65.7671C61 74.332 67.9432 81.2752 76.5081 81.2752Z" fill="#B7E8EB"/>
<path d="M253.158 119.077C261.723 119.077 268.666 112.134 268.666 103.569C268.666 95.0038 261.723 88.0606 253.158 88.0606C244.593 88.0606 237.65 95.0038 237.65 103.569C237.65 112.134 244.593 119.077 253.158 119.077Z" fill="#B7E8EB"/>
<path d="M211.722 50.0162C220.286 50.0162 227.23 43.073 227.23 34.5081C227.23 25.9432 220.286 19 211.722 19C203.157 19 196.213 25.9432 196.213 34.5081C196.213 43.073 203.157 50.0162 211.722 50.0162Z" fill="#B7E8EB"/>
<path d="M234 232.667C234 240 228.723 246 222.273 246C220.514 246 218.872 245.6 217.347 244.8L169.5 219.333L121.653 244.8C120.128 245.6 118.486 246 116.727 246C110.277 246 105 240 105 232.667C105 230.667 105.352 228.933 106.055 227.2L158.828 93.8667C160.587 89.2 164.692 86 169.5 86C174.308 86 178.413 89.2 180.172 93.8667L232.945 227.2C233.648 228.933 234 230.667 234 232.667V232.667Z" fill="#B7E8EB"/>
<path d="M169.5 86C164.692 86 160.587 89.2 158.828 93.8667L106.055 227.2C105.352 228.933 105 230.667 105 232.667C105 240 110.277 246 116.727 246C118.486 246 120.128 245.6 121.653 244.8L169.5 219.333V86Z" fill="#85C0CA"/>
</svg>
