<svg width="88" height="118" viewBox="0 0 88 118" fill="none" xmlns="http://www.w3.org/2000/svg">
<g clip-path="url(#clip0)">
<path d="M12.5049 25.9769H20.6339V92.6487H49.9689V25.9769H58.0982C60.4744 25.9769 61.6641 23.3222 59.9839 21.7731L37.1885 0.723147C36.1457 -0.239747 34.4574 -0.239747 33.4146 0.723147L10.6195 21.7734C8.93921 23.3222 10.1286 25.9769 12.5049 25.9769V25.9769Z" fill="#56CAD4"/>
<path d="M35.0081 78.2031H25.9429V72.4898C25.9429 68.53 23.8518 65.0109 20.6355 62.8265V85.5393H35.0084C37.2035 85.5393 38.9798 83.8968 38.9798 81.87C38.9795 79.8455 37.2032 78.2031 35.0081 78.2031V78.2031Z" fill="#2B96A9"/>
<path d="M58.0969 25.9762H49.9676V92.6487H38.782V28.2172C38.782 26.9786 39.8675 25.9762 41.2063 25.9762H46.9111C49.2873 25.9762 50.477 23.3215 48.7968 21.7724L29.7085 4.14508L33.4156 0.722171C34.4559 -0.240724 36.1441 -0.240724 37.1869 0.722171L59.9823 21.7727C61.6628 23.3215 60.4734 25.9762 58.0969 25.9762V25.9762Z" fill="#2B96A9"/>
<path d="M50.9767 105.65C50.9767 105.65 40.3791 92.1133 42.2133 85.5462C44.0476 78.979 54.7913 74.9581 54.7913 74.9581L54.0051 105.65H50.9767V105.65Z" fill="#F9CD8B"/>
<path d="M87.6622 80.3861C87.6622 77.7954 85.6091 75.6951 83.0765 75.6951C80.5438 75.6951 78.4907 77.7954 78.4907 80.3861V77.6125C78.4907 75.0217 76.4376 72.9215 73.9049 72.9215C71.3723 72.9215 69.3192 75.0217 69.3192 77.6125V75.3937C69.3192 72.8029 67.266 70.7027 64.7334 70.7027C62.2008 70.7027 60.1477 72.8029 60.1477 75.3937V52.691C60.1477 50.1003 58.0945 48 55.5619 48C55.4827 48 55.4041 48.0021 55.326 48.0059C52.8705 48.13 50.9763 50.2776 50.9763 52.7923V115.661C50.9763 116.751 51.8398 117.634 52.9051 117.634H81.9484C83.0137 117.634 83.8772 116.751 83.8772 115.661V107.705C83.8772 107.047 84.0489 106.4 84.3745 105.833L86.0414 102.928C87.1026 101.078 87.662 98.972 87.662 96.8275V80.3861H87.6622Z" fill="#FCDCA3"/>
<path d="M87.6621 80.4927V96.827C87.6621 98.9726 87.1029 101.079 86.0426 102.927L84.3746 105.833C84.0496 106.401 83.8773 107.047 83.8773 107.706V115.661C83.8773 116.751 83.0138 117.634 81.9485 117.634H78.2678V107.706C78.2678 107.047 78.4401 106.401 78.7651 105.833L80.431 102.927C81.4934 101.079 82.0526 98.9726 82.0526 96.827V80.3864C82.0526 78.876 81.356 77.534 80.2725 76.6769C81.0892 76.0269 82.1247 75.6575 83.2434 75.6982C85.7275 75.7886 87.6621 77.9502 87.6621 80.4927V80.4927Z" fill="#F9CD8B"/>
<path d="M50.976 76.7468V93.5592C50.976 94.376 50.328 95.0389 49.5295 95.0389C48.731 95.0389 48.083 94.376 48.083 93.5592V78.5186C49.0704 77.8339 50.0657 77.2419 50.976 76.7468Z" fill="#F9CD8B"/>
<path d="M-0.020752 66.5508V75.9327C-0.020752 77.9578 1.75757 79.5998 3.95086 79.5998H35.0084C37.2017 79.5998 38.98 77.9578 38.98 75.9327C38.98 73.9075 37.2017 72.2655 35.0084 72.2655H25.9436V66.5508C25.9436 59.9411 20.1199 54.5638 12.9612 54.5638C5.80273 54.5641 -0.020752 59.9414 -0.020752 66.5508V66.5508ZM18.0004 66.5508V72.2655H7.92247V66.5508C7.92247 63.9855 10.1829 61.8984 12.9612 61.8984C15.7398 61.8984 18.0004 63.9857 18.0004 66.5508Z" fill="#C91844"/>
<path d="M38.9795 75.9327C38.9795 77.9569 37.2033 79.5996 35.0082 79.5996H28.49C30.6851 79.5996 32.4613 77.9571 32.4613 75.9327C32.4613 73.9058 30.6851 72.2657 28.49 72.2657H35.0082C37.2033 72.266 38.9795 73.9061 38.9795 75.9327Z" fill="#AC1147"/>
<path d="M25.9429 66.5501V72.2657H19.4247V66.5501C19.4247 60.9798 15.2882 56.2835 9.70312 54.9462C10.746 54.6951 11.8368 54.5621 12.9622 54.5621C20.1207 54.5621 25.9429 59.9404 25.9429 66.5501V66.5501Z" fill="#AC1147"/>
<path d="M3.95086 95.2785H25.2851C28.3251 95.2785 30.9178 97.4571 31.0327 100.262C31.1534 103.211 28.5903 105.646 25.4229 105.646H3.95086C1.75731 105.646 -0.020752 107.287 -0.020752 109.313C-0.020752 111.338 1.75731 112.98 3.95086 112.98H25.1955C32.6193 112.98 38.8371 107.557 38.9777 100.704C39.1217 93.6911 32.9857 87.944 25.4229 87.944H3.95086C1.75731 87.944 -0.020752 89.5857 -0.020752 91.6111C-0.020752 93.6365 1.75731 95.2785 3.95086 95.2785V95.2785Z" fill="#C91844"/>
<path d="M38.9768 100.704C38.8382 107.558 32.6186 112.98 25.1962 112.98H18.678C26.1004 112.98 32.32 107.558 32.4586 100.704C32.6026 93.6906 26.4684 87.943 18.9046 87.943H25.4228C32.9866 87.9428 39.1208 93.6906 38.9768 100.704Z" fill="#AC1147"/>
</g>
<defs>
<clipPath id="clip0">
<rect width="88" height="118" fill="white"/>
</clipPath>
</defs>
</svg>
